<?xml version="1.0" encoding="UTF-8"?>
<svg version="1.1" xmlns="http://www.w3.org/2000/svg" width="1024" height="1024">
<path d="M0 0 C337.92 0 675.84 0 1024 0 C1024 337.92 1024 675.84 1024 1024 C686.08 1024 348.16 1024 0 1024 C0 686.08 0 348.16 0 0 Z " fill="#FCF6EE" transform="translate(0,0)"/>
<path d="M0 0 C0.71414063 0.17128418 1.42828125 0.34256836 2.1640625 0.51904297 C25.22550761 6.31222935 45.029302 18.65784637 62 35 C62.63292969 35.56976563 63.26585937 36.13953125 63.91796875 36.7265625 C103.30498246 73.21334479 109.03643101 136.44327929 115.74745178 186.33462524 C123.06054216 240.68492862 130.90169655 294.91814802 140 349 C140.20191956 350.20253418 140.40383911 351.40506836 140.61187744 352.64404297 C141.89294595 360.26529498 143.18950339 367.88375572 144.5 375.5 C144.6600351 376.43553711 144.82007019 377.37107422 144.98495483 378.33496094 C145.82382142 383.2209024 146.69568565 388.09795214 147.62591553 392.96734619 C147.97544243 394.86656213 148.27505141 396.77477569 148.57080078 398.68310547 C149.53618047 404.26521659 149.53618047 404.26521659 152.80566406 408.69042969 C155.10666519 410.07678544 157.38750444 411.11305146 159.875 412.125 C161.60350631 412.92909708 163.3274791 413.74300846 165.046875 414.56640625 C165.89185547 414.96617676 166.73683594 415.36594727 167.60742188 415.77783203 C173.33516788 418.70365821 178.15828537 422.80249109 183 427 C183.81726563 427.70511719 184.63453125 428.41023438 185.4765625 429.13671875 C203.88812151 446.25124354 210.96676861 471.77888308 215.6875 495.625 C215.97282593 497.04075317 215.97282593 497.04075317 216.26391602 498.48510742 C220.74326959 522.40036639 221.98676565 546.85889164 223.76193237 571.08441162 C225.96814501 601.15243347 228.51280169 631.12930827 231.89770508 661.08831787 C234.36767531 682.96516728 236.76199718 704.69736943 236.6875 726.75 C236.68676483 727.60752869 236.68602966 728.46505737 236.68527222 729.34857178 C236.57550422 749.26544713 233.78667888 767.88737998 219.29296875 782.76953125 C218.53628906 783.50558594 217.77960937 784.24164062 217 785 C216.33613281 785.68449219 215.67226563 786.36898437 214.98828125 787.07421875 C195.52925423 805.94020875 166.43770713 811.4084297 141 817 C142.41494774 820.89110628 144.26149406 824.14797642 146.5 827.625 C155.52860963 842.01959092 162.8102808 857.19472615 169 873 C169.48267334 874.21768066 169.48267334 874.21768066 169.97509766 875.45996094 C177.87087237 895.57043238 183.81290574 916.61510354 188.5625 937.6875 C188.71879883 938.38069336 188.87509766 939.07388672 189.03613281 939.78808594 C189.79106787 943.348105 190 946.30210986 190 950 C44.8 950 -100.4 950 -250 950 C-249.38898647 944.50087824 -248.84577592 939.74369431 -247.58203125 934.48046875 C-247.30037109 933.30347412 -247.01871094 932.12647949 -246.72851562 930.91381836 C-246.42623047 929.6841333 -246.12394531 928.45444824 -245.8125 927.1875 C-245.656604 926.54894073 -245.50070801 925.91038147 -245.34008789 925.25247192 C-242.59895856 914.04595663 -239.57046373 902.97085253 -236 892 C-235.74814941 891.21463867 -235.49629883 890.42927734 -235.23681641 889.62011719 C-227.63184823 866.12424181 -217.84628391 841.14014597 -203.2109375 821.0703125 C-200.89142499 818.17053236 -200.89142499 818.17053236 -200 815 C-201.27359375 814.87882813 -202.5471875 814.75765625 -203.859375 814.6328125 C-230.23632061 811.67801805 -262.34817233 802.8904256 -281 783 C-281.639375 782.37867188 -282.27875 781.75734375 -282.9375 781.1171875 C-298.16044041 765.43493423 -297.42464353 742.53290013 -297.25390625 722.23291016 C-297.02067969 708.86631086 -295.33934148 695.60112668 -293.75506592 682.34075928 C-293.32062584 678.67322839 -292.90544378 675.00351332 -292.48828125 671.33398438 C-291.67690594 664.2205046 -290.84551148 657.1095107 -290 650 C-291.10741295 649.70520248 -291.10741295 649.70520248 -292.23719788 649.40444946 C-293.21474533 649.14159149 -294.19229279 648.87873352 -295.19946289 648.60791016 C-296.16461319 648.34950348 -297.12976349 648.0910968 -298.12416077 647.82485962 C-316.72041565 642.49100801 -331.40541916 633.33441867 -342.3046875 617.05078125 C-344.14915754 611.61063084 -340.81059726 605.70040428 -338.66796875 600.73046875 C-338.1526207 599.51225182 -338.1526207 599.51225182 -337.62686157 598.26942444 C-336.87920204 596.50315175 -336.12876687 594.73805199 -335.37588501 592.97399902 C-333.31602151 588.14407641 -331.28062344 583.30383919 -329.2421875 578.46484375 C-328.81378067 577.44919342 -328.38537384 576.43354309 -327.94398499 575.38711548 C-314.71010973 543.97872642 -301.94595081 512.37929803 -289.93640137 480.48236084 C-288.9825522 477.95374661 -288.0235764 475.42712585 -287.06347656 472.90087891 C-267.64425687 421.7445414 -250.28047931 369.85407971 -234.96960449 317.32415771 C-233.98589485 313.95164242 -232.99777447 310.5804443 -232.00878906 307.20947266 C-217.92018234 259.13722239 -204.44912675 210.86587145 -191.578125 162.453125 C-191.40636875 161.80780508 -191.2346125 161.16248516 -191.05765152 160.49761009 C-189.31919511 153.96563275 -187.58966726 147.43151512 -185.88037109 140.8918457 C-181.26279381 123.33311567 -176.18221958 105.91654527 -168.75 89.3125 C-168.28601807 88.2699707 -167.82203613 87.22744141 -167.34399414 86.15332031 C-149.56965121 47.14975964 -119.46222525 18.12032756 -79.30371094 3.01806641 C-71.44325985 0.25903656 -63.25982837 -1.22720974 -55.06738281 -2.64038086 C-53.41737762 -2.92739759 -51.77368154 -3.25061004 -50.1328125 -3.5859375 C-33.35644967 -5.80326226 -16.34862947 -3.95201749 0 0 Z " fill="#343335" transform="translate(542,74)"/>
<path d="M0 0 C3.05147063 3.50287161 4.44194391 7.4049127 5.875 11.75 C6.1318457 12.52569336 6.38869141 13.30138672 6.65332031 14.10058594 C14.07476287 37.4630309 16.28971635 61.83856145 18.375 86.125 C18.59556618 88.65942866 18.81618884 91.19385241 19.03686523 93.72827148 C20.48759427 110.49857231 21.80660188 127.27663466 23.0625 144.0625 C24.24088842 159.81089162 25.54059182 175.53687186 27.125 191.25 C27.20549591 192.05140411 27.28599182 192.85280823 27.368927 193.67849731 C28.30593389 202.94338084 29.37749016 212.18392117 30.54931641 221.421875 C32.40536627 236.15766418 33.20116716 250.78183497 33.25 265.625 C33.25517639 266.3433905 33.26035278 267.06178101 33.26568604 267.80194092 C33.36520521 285.27980931 32.25023756 302.67500443 19.359375 315.734375 C18.58078125 316.48203125 17.8021875 317.2296875 17 318 C16.01773438 319.02867187 16.01773438 319.02867187 15.015625 320.078125 C5.38182239 329.56256633 -7.59118551 334.76887641 -20.125 339.25 C-21.38111084 339.70729492 -21.38111084 339.70729492 -22.66259766 340.17382812 C-40.29747498 346.1741575 -59.20461232 348.90225911 -77.49316406 352.16748047 C-80.79095332 352.75732493 -84.08689142 353.35684509 -87.3828125 353.95703125 C-89.52073016 354.34171968 -91.65874744 354.72585492 -93.796875 355.109375 C-94.76163757 355.28539246 -95.72640015 355.46140991 -96.72039795 355.64276123 C-103.12981621 356.77775512 -109.50992605 357.50887948 -116 358 C-115.25130208 355.265625 -114.50260417 352.53125 -113.75390625 349.796875 C-113.38072266 348.41242188 -113.38072266 348.41242188 -113 347 C-112.82436523 346.3704541 -112.64873047 345.7409082 -112.46777344 345.09228516 C-109.03002046 329.71569693 -112.87634868 313.67204926 -120.53515625 300.3046875 C-121.92792539 298.11339738 -123.431325 296.06709436 -125 294 C-124.39341553 293.82984375 -123.78683105 293.6596875 -123.16186523 293.484375 C-102.971081 287.78861593 -82.85682747 282.09830988 -64.27490234 272.20263672 C-28.68215509 253.38638077 -28.68215509 253.38638077 -9.17578125 252.39453125 C-5.79809419 252.48340844 -5.79809419 252.48340844 -3 251 C-2.83333333 248 -2.83333333 248 -3 245 C-5.39250494 242.60749506 -11.67525851 243.57107431 -14.99853516 243.53369141 C-24.33408504 243.67752854 -32.43046547 246.52460358 -41 250 C-41.99257813 250.39445313 -42.98515625 250.78890625 -44.0078125 251.1953125 C-44.66523437 251.46085938 -45.32265625 251.72640625 -46 252 C-47.36328132 246.81902898 -48.41928246 241.75773861 -49.1484375 236.44140625 C-49.24587753 235.74317749 -49.34331757 235.04494873 -49.44371033 234.32556152 C-49.75786635 232.07170677 -50.06648633 229.81713335 -50.375 227.5625 C-50.8106152 224.41621699 -51.2498622 221.27045623 -51.69140625 218.125 C-51.80072983 217.34544449 -51.91005341 216.56588898 -52.02268982 215.76271057 C-53.14019634 207.87337858 -54.42502247 200.01125172 -55.83154297 192.16821289 C-57.82580079 180.44650084 -56.85588153 169.43699105 -55.0920105 157.76968384 C-54.49404417 153.80140062 -53.92784613 149.82862214 -53.36328125 145.85546875 C-53.24694839 145.03793625 -53.13061554 144.22040375 -53.01075745 143.37809753 C-51.81611354 134.87464346 -50.85462953 126.34971177 -49.9375 117.8125 C-49.81894653 116.7092186 -49.81894653 116.7092186 -49.69799805 115.58364868 C-49.61912354 114.84939667 -49.54024902 114.11514465 -49.45898438 113.35864258 C-49.2996107 111.87710173 -49.14010567 110.39557501 -48.98046875 108.9140625 C-48.86262527 107.81921791 -48.86262527 107.81921791 -48.74240112 106.70225525 C-48.16020034 101.34530749 -47.52494979 95.99611731 -46.86328125 90.6484375 C-46.76961777 89.88998032 -46.67595428 89.13152313 -46.57945251 88.3500824 C-46.13202908 84.73818824 -45.67872078 81.12713113 -45.21850586 77.5168457 C-45.05874268 76.23640381 -44.89897949 74.95596191 -44.734375 73.63671875 C-44.59225586 72.51998779 -44.45013672 71.40325684 -44.30371094 70.25268555 C-43.98063713 66.79262735 -43.81516299 63.47203129 -44 60 C-44.66 59.34 -45.32 58.68 -46 58 C-48.55460214 57.92727438 -48.55460214 57.92727438 -51 59 C-52.60283328 62.25878231 -53.33442401 65.31254992 -53.77441406 68.89892578 C-53.89526871 69.85699631 -54.01612335 70.81506683 -54.14064026 71.8021698 C-54.26438522 72.83940689 -54.38813019 73.87664398 -54.515625 74.9453125 C-54.65189804 76.04317581 -54.78817108 77.14103912 -54.92857361 78.27217102 C-55.3756293 81.88900505 -55.8128276 85.50695921 -56.25 89.125 C-56.55979792 91.64467475 -56.87010687 94.16428671 -57.1809082 96.68383789 C-58.71580952 109.17599386 -60.20410531 121.67329514 -61.65234375 134.17578125 C-61.78321381 135.30232117 -61.91408386 136.42886108 -62.04891968 137.58953857 C-62.66444868 142.89422685 -63.27384254 148.19946001 -63.87011719 153.50634766 C-65.13883553 164.64843828 -66.68758935 175.70870249 -68.50308228 186.77507019 C-70.1928906 197.07793775 -71.66135104 207.40438024 -73.0625 217.75 C-73.1897345 218.68259644 -73.31696899 219.61519287 -73.44805908 220.5760498 C-75.64052804 236.68752535 -77.51437609 252.80710202 -79 269 C-95.74208215 275.77824757 -112.56337037 280.84108127 -130.05932617 285.18139648 C-132.99657089 285.93520165 -132.99657089 285.93520165 -135.68481445 287.11206055 C-141.74077744 289.43469446 -148.33400134 285.87784417 -154 283.625 C-162.25473744 280.44686542 -170.26265008 278.37133295 -179 277 C-175.92856901 274.95237934 -173.72564489 274.30861653 -170.1875 273.375 C-157.94374594 269.68005863 -147.98397373 263.09430324 -139 254 C-138.32710937 253.34902344 -137.65421875 252.69804688 -136.9609375 252.02734375 C-129.34070942 244.14906013 -119.24521272 230.47898786 -118.875 219.1875 C-118.936875 217.6096875 -118.936875 217.6096875 -119 216 C-125.05290009 213.38008802 -129.98911777 212.48068427 -136.5625 212.5625 C-137.43874023 212.57152344 -138.31498047 212.58054687 -139.21777344 212.58984375 C-158.57659324 213.09835708 -175.63077863 221.23972279 -189 235 C-190 236 -191 237 -192 238 C-188.85463737 225.00939661 -183.49139027 213.59844948 -177 202 C-173.91603156 202.44056692 -171.13714636 202.94890626 -168.2109375 204.0390625 C-151.84685191 208.93634359 -133.11251101 203.71194153 -118.46069336 196.13256836 C-109.10006477 191.03071505 -102.97767619 185.12235234 -99.25390625 174.96484375 C-97.01189507 167.18738429 -97.18459233 160.24619367 -100.796875 152.9453125 C-103.01862867 149.35299651 -105.5462277 147.43657491 -109.5625 146.23046875 C-112 145 -112 145 -113.00390625 142.609375 C-113.18824219 141.66578125 -113.37257813 140.7221875 -113.5625 139.75 C-115.21154189 132.70241873 -117.91555059 128.10346588 -124 124 C-128.58577681 121.47314339 -131.94993087 120.86075433 -137.1875 120.625 C-142.72653339 120.28909327 -142.72653339 120.28909327 -145.1875 117.6875 C-145.785625 116.800625 -146.38375 115.91375 -147 115 C-152.15991271 111.76077914 -157.89590908 109.67744697 -164 111 C-169.57520251 113.1633838 -174.53994532 115.98595079 -179 120 C-178.83991455 119.2980249 -178.6798291 118.5960498 -178.51489258 117.87280273 C-177.57780677 112.64440599 -177.73124314 107.36125224 -177.6875 102.0625 C-177.65849609 100.89525391 -177.62949219 99.72800781 -177.59960938 98.52539062 C-177.51396947 89.94201992 -177.51396947 89.94201992 -182 83 C-186.68386533 80.1701647 -190.87326437 78.85567767 -196.3125 78.875 C-197.09882812 78.87757813 -197.88515625 78.88015625 -198.6953125 78.8828125 C-201.24946295 78.95519221 -201.24946295 78.95519221 -204.6875 79.75 C-209.04314408 80.07872786 -210.55817434 78.5439581 -214 76 C-222.39463937 73.34906125 -230.31751928 75.17548493 -238 79 C-242.39152964 82.06766495 -245.81676617 85.04699191 -248 90 C-248.88042969 89.96519531 -249.76085937 89.93039062 -250.66796875 89.89453125 C-252.41013672 89.85392578 -252.41013672 89.85392578 -254.1875 89.8125 C-255.33605469 89.77769531 -256.48460937 89.74289062 -257.66796875 89.70703125 C-262.26456834 90.11118713 -264.84368526 91.64432065 -267.8125 95.125 C-270.82007278 102.40649199 -268.72283118 108.68426051 -265.875 115.71484375 C-265 118 -265 118 -265 120 C-265.66644531 119.84273437 -266.33289063 119.68546875 -267.01953125 119.5234375 C-276.21712041 117.90813351 -285.86071897 117.64092114 -294.07421875 122.5 C-297.81119297 125.41074666 -299.49944702 128.49834106 -301 133 C-301.96099609 133.11214844 -301.96099609 133.11214844 -302.94140625 133.2265625 C-309.36539568 134.20308548 -313.77105506 135.91750654 -318 141 C-319.0541518 144.16245541 -319.31275672 146.86948218 -319.5625 150.1875 C-319.68818359 151.81751953 -319.68818359 151.81751953 -319.81640625 153.48046875 C-319.87699219 154.31191406 -319.93757813 155.14335938 -320 156 C-321.2375 156.226875 -322.475 156.45375 -323.75 156.6875 C-326.7508394 157.46431304 -328.04085819 158.03370801 -330.5 160.0625 C-332.8739096 164.7114063 -332.87724627 168.93581586 -331.4453125 173.9375 C-324.55604681 189.684393 -308.39728493 201.62952028 -293 208 C-289.99131866 208.90375139 -287.29302074 209.12856706 -284.15625 209.1328125 C-283.23972656 209.13410156 -282.32320313 209.13539063 -281.37890625 209.13671875 C-279.95384766 209.13091797 -279.95384766 209.13091797 -278.5 209.125 C-277.07494141 209.13080078 -277.07494141 209.13080078 -275.62109375 209.13671875 C-274.24630859 209.13478516 -274.24630859 209.13478516 -272.84375 209.1328125 C-272.01037109 209.13168457 -271.17699219 209.13055664 -270.31835938 209.12939453 C-268.08323482 209.00464558 -266.14499663 208.62140725 -264 208 C-260.98320986 212.53669968 -258.46032495 216.68972746 -257 222 C-257.69222656 221.71382812 -258.38445312 221.42765625 -259.09765625 221.1328125 C-268.88267902 217.31362461 -277.82565423 215.61391045 -288.3125 215.5625 C-289.67169556 215.54775635 -289.67169556 215.54775635 -291.05834961 215.53271484 C-299.26780176 215.63592195 -307.16966117 217.21876282 -314 222 C-313.02443279 233.9469462 -302.46004307 245.06077039 -294 253 C-278.12250673 265.21520614 -262.35851389 266.21240159 -243 264 C-242.34 265.65 -241.68 267.3 -241 269 C-242.08410156 269.17273438 -243.16820312 269.34546875 -244.28515625 269.5234375 C-256.94529157 271.72173977 -268.96452446 275.36284792 -281.10961914 279.47021484 C-297.53128391 285 -297.53128391 285 -306 285 C-306 284.34 -306 283.68 -306 283 C-306.88921143 282.83491943 -307.77842285 282.66983887 -308.69458008 282.49975586 C-317.77135964 280.75696235 -326.66582989 278.61564132 -335.5715332 276.14819336 C-337.69505562 275.56040863 -339.82092971 274.98181117 -341.94726562 274.40429688 C-350.05606617 272.1862797 -358.05748132 269.76660147 -366 267 C-367.41795162 256.84377745 -368.79850755 246.68392634 -370.06640625 236.5078125 C-372.16812686 219.6923587 -374.42566835 202.91970491 -376.99081421 186.16809082 C-379.80991389 167.75159078 -382.27758011 149.31840321 -384.4375 130.8125 C-384.56905487 129.68952515 -384.70060974 128.56655029 -384.83615112 127.4095459 C-385.20589867 124.2383114 -385.57112765 121.06660559 -385.93359375 117.89453125 C-386.0426001 116.94888809 -386.15160645 116.00324493 -386.26391602 115.02894592 C-386.41062744 113.72261452 -386.41062744 113.72261452 -386.56030273 112.38989258 C-386.64577866 111.63452713 -386.73125458 110.87916168 -386.81932068 110.10090637 C-386.99364785 108.07386162 -387 106.03452707 -387 104 C-386.09378906 104.2165625 -385.18757813 104.433125 -384.25390625 104.65625 C-366.81465909 108.64236364 -353.49617561 106.37400541 -338 97 C-324.49281719 86.9018606 -317.13401358 74.56819935 -314.70703125 58 C-314.33290545 52.66112379 -315.70265976 47.92802392 -317.25 42.875 C-317.45439697 42.205896 -317.65879395 41.53679199 -317.86938477 40.84741211 C-319.00968693 37.35327125 -320.3379311 34.28756814 -322.234375 31.1328125 C-322.81703125 30.09898437 -323.3996875 29.06515625 -324 28 C-323.67 27.34 -323.34 26.68 -323 26 C-322.39043457 26.08040527 -321.78086914 26.16081055 -321.15283203 26.24365234 C-307.92604187 27.95529715 -294.71768693 29.29908352 -281.40234375 30.08203125 C-280.68253893 30.12471823 -279.96273411 30.1674052 -279.22111702 30.21138573 C-262.11720175 31.20177725 -245.02566333 31.35673983 -227.89702225 31.31785583 C-225.39113464 31.31239904 -222.88525652 31.3100428 -220.37936401 31.3079834 C-182.42318046 31.25948361 -144.52437409 30.17793686 -107 24 C-105.48294351 23.75500172 -103.96585186 23.51022107 -102.44873047 23.265625 C-68.02486386 17.67958966 -33.05308343 11.38617924 0 0 Z " fill="#FCF7EF" transform="translate(735,533)"/>
<path d="M0 0 C3.57005705 0.19354341 6.94281388 0.60917757 10.46191406 1.22827148 C11.71206299 1.44394775 12.96221191 1.65962402 14.25024414 1.88183594 C14.8987735 1.99612946 15.54730286 2.11042297 16.21548462 2.22817993 C37.35974264 6.20602109 37.35974264 6.20602109 58.77832031 7.20483398 C59.43832031 5.88483398 60.09832031 4.56483398 60.77832031 3.20483398 C65.10917647 3.68324251 69.34094 4.28531971 73.60644531 5.17749023 C93.68023438 9.28463553 113.43007628 8.83706659 133.77832031 7.20483398 C133.47539062 8.25348633 133.17246094 9.30213867 132.86035156 10.38256836 C131.73151555 14.30078768 130.61667287 18.22287718 129.50585938 22.14624023 C129.02460021 23.83872213 128.53963112 25.53015393 128.05078125 27.22045898 C127.34583126 29.66044916 126.65463054 32.10399524 125.96582031 34.54858398 C125.74708252 35.29474976 125.52834473 36.04091553 125.30297852 36.80969238 C123.9282237 41.75466056 123.40309427 46.06647733 123.77832031 51.20483398 C124.43832031 51.86483398 125.09832031 52.52483398 125.77832031 53.20483398 C129.79796719 53.20483398 131.36738466 52.61316052 134.23925781 49.75952148 C137.44015809 45.727821 138.94506326 41.1544816 140.59082031 36.32983398 C141.0577832 35.01112305 141.0577832 35.01112305 141.53417969 33.66577148 C142.29366675 31.51583888 143.04129809 29.36254879 143.77832031 27.20483398 C144.10832031 27.20483398 144.43832031 27.20483398 144.77832031 27.20483398 C144.37115937 34.58730468 143.90677922 41.95490828 143.23144531 49.31811523 C143.13653809 50.35444092 143.04163086 51.3907666 142.94384766 52.45849609 C142.75139023 54.52620041 142.55386372 56.59343967 142.35107422 58.66015625 C142.2626123 59.61075928 142.17415039 60.5613623 142.08300781 61.54077148 C142.00034668 62.39203613 141.91768555 63.24330078 141.83251953 64.12036133 C141.61321351 66.26654621 141.61321351 66.26654621 142.77832031 68.20483398 C144.75832031 68.20483398 146.73832031 68.20483398 148.77832031 68.20483398 C150.69134338 64.93869704 151.13506692 62.2103815 151.40332031 58.45483398 C151.47808594 57.46999023 151.55285156 56.48514648 151.62988281 55.47045898 C151.70335937 54.34897461 151.70335937 54.34897461 151.77832031 53.20483398 C153.77832031 53.20483398 153.77832031 53.20483398 155.77832031 54.82983398 C158.04568854 57.52233375 158.80929464 59.85051436 159.77832031 63.20483398 C160.90366136 64.56101897 160.90366136 64.56101897 163.84082031 64.26733398 C164.81019531 64.24670898 165.77957031 64.22608398 166.77832031 64.20483398 C168.01249694 61.73648073 167.97540157 59.9653913 168.07543945 57.2043457 C168.11540543 56.16341766 168.1553714 55.12248962 168.19654846 54.05001831 C168.23513474 52.92290436 168.27372101 51.79579041 168.31347656 50.63452148 C168.3564537 49.48315704 168.39943085 48.3317926 168.44371033 47.14553833 C168.58039332 43.4571139 168.7106746 39.76849432 168.84082031 36.07983398 C168.9321966 33.5837248 169.02398808 31.08763078 169.11621094 28.59155273 C169.3417374 22.46281448 169.56200413 16.33390385 169.77832031 10.20483398 C171.91405401 13.40843453 172.15025536 14.83636523 172.52441406 18.57983398 C172.63978516 19.6484668 172.75515625 20.71709961 172.87402344 21.81811523 C173.09872661 24.04460269 173.32270623 26.27116331 173.54589844 28.49780273 C174.46923555 37.03739573 175.6809597 45.54315671 179.77832031 53.20483398 C182.08832031 53.20483398 184.39832031 53.20483398 186.77832031 53.20483398 C186.18437063 43.7968296 185.0748241 34.53057729 183.71582031 25.20483398 C183.34677035 22.66362488 182.98075747 20.12197238 182.61816406 17.57983398 C182.45695068 16.47381836 182.2957373 15.36780273 182.12963867 14.22827148 C181.81450658 11.51625219 181.7102306 8.93095606 181.77832031 6.20483398 C182.63554688 6.48198242 183.49277344 6.75913086 184.37597656 7.04467773 C192.92956877 9.82592219 192.92956877 9.82592219 201.77832031 11.20483398 C203.10863281 11.29958008 203.10863281 11.29958008 204.46582031 11.39624023 C214.55965679 11.7723327 224.14597031 9.97216459 234.04394531 8.17749023 C235.95457733 7.84843694 237.86602824 7.52409846 239.77832031 7.20483398 C240.70837891 7.04225098 241.6384375 6.87966797 242.59667969 6.7121582 C245.0502225 6.35670905 247.30271757 6.06311 249.77832031 6.20483398 C251.95800781 8.17358398 251.95800781 8.17358398 253.77832031 10.20483398 C257.10892766 10.39760612 257.10892766 10.39760612 260.90332031 9.70483398 C261.6297876 9.60098389 262.35625488 9.49713379 263.10473633 9.39013672 C265.66637831 9.01718442 268.2216142 8.61019306 270.77832031 8.20483398 C272.8679168 7.89198007 274.95777483 7.58086949 277.04785156 7.27124023 C289.64685872 5.38585162 302.22049258 3.34647902 314.77832031 1.20483398 C337.78890616 37.48727348 352.75437877 75.47339214 362.77832031 117.20483398 C363.0918042 118.47085449 363.0918042 118.47085449 363.41162109 119.76245117 C363.5957959 120.53492188 363.7799707 121.30739258 363.96972656 122.10327148 C364.12771729 122.75730957 364.28570801 123.41134766 364.44848633 124.08520508 C364.77832031 126.20483398 364.77832031 126.20483398 364.77832031 132.20483398 C226.83832031 132.20483398 88.89832031 132.20483398 -53.22167969 132.20483398 C-52.58393986 125.8274357 -51.98218331 120.45894815 -50.50683594 114.37280273 C-50.3358287 113.66646194 -50.16482147 112.96012115 -49.9886322 112.2323761 C-49.43062558 109.94970677 -48.85938891 107.670726 -48.28417969 105.39233398 C-47.98797729 104.2113916 -47.98797729 104.2113916 -47.68579102 103.0065918 C-39.75956994 71.60595267 -27.81196362 42.56582572 -12.22167969 14.20483398 C-11.79290527 13.42092285 -11.36413086 12.63701172 -10.92236328 11.8293457 C-9.78467768 9.7866105 -8.60984265 7.7735384 -7.40917969 5.76733398 C-6.76335937 4.67549805 -6.11753906 3.58366211 -5.45214844 2.45874023 C-3.22167969 0.20483398 -3.22167969 0.20483398 0 0 Z " fill="#FDF7EF" transform="translate(356.2216796875,891.795166015625)"/>
<path d="M0 0 C1.7757855 2.66367825 2.95078188 5.19287209 4.15576172 8.14013672 C9.91896119 22.11647875 17.50516154 34.0908916 28 45 C29.15233426 46.34863899 30.29848109 47.70259658 31.4375 49.0625 C38.69593369 57.33181145 47.20826404 63.78178062 56.19140625 70.03125 C59.93928567 72.65841443 59.93928567 72.65841443 60.35717773 75.00952148 C60.46489502 75.87134033 60.5726123 76.73315918 60.68359375 77.62109375 C60.86825195 79.02391602 60.86825195 79.02391602 61.05664062 80.45507812 C61.30999373 82.43902781 61.56000911 84.42340665 61.80664062 86.40820312 C61.93103516 87.34470703 62.05542969 88.28121094 62.18359375 89.24609375 C62.29243896 90.10904053 62.40128418 90.9719873 62.51342773 91.86108398 C62.8460524 94.20114713 62.8460524 94.20114713 65 96 C68.08347826 96.16681109 68.08347826 96.16681109 71 96 C71.00257813 95.25234375 71.00515625 94.5046875 71.0078125 93.734375 C71.32359244 85.6925125 71.32359244 85.6925125 74.625 82.3125 C78.53626511 80.79145246 80.84464093 80.33217443 85 81 C89.29895529 83.83893274 91.54568939 86.09253177 93 91 C94.77561974 107.00037273 91.81013733 121.03660424 82 134 C77.71241418 139.34084059 77.71241418 139.34084059 75 141 C73.02 141 71.04 141 69 141 C69 136.71 69 132.42 69 128 C66.03 127.505 66.03 127.505 63 127 C59.8182118 132.50008225 58.60761732 138.22083799 57.1875 144.375 C49.16541376 177.44249673 32.97978121 205.31225732 3.7890625 224.0625 C-13.16822511 234.30671952 -30.54335585 239.49950136 -50.4296875 235.14453125 C-76.03067011 228.38616568 -99.84827823 208.99409207 -113.09765625 186.45703125 C-122.85322582 168.72873747 -128.83366804 149.74479057 -133 130 C-135.31 129.34 -137.62 128.68 -140 128 C-140.66 130.64 -141.32 133.28 -142 136 C-151.16737425 132.89241551 -156.40998177 128.65507835 -161 120 C-164.21246629 110.8433784 -165.04622092 99.134231 -160.8125 90.1875 C-158.68279584 86.68571752 -156.69721926 83.93663866 -153 82 C-149.25 81.6875 -149.25 81.6875 -146 82 C-144.11525997 83.88474003 -144.30668 87.02746402 -143.9375 89.5625 C-143.76089844 90.76003906 -143.58429688 91.95757812 -143.40234375 93.19140625 C-143.20318359 94.58166016 -143.20318359 94.58166016 -143 96 C-139.41672247 97.00217064 -139.41672247 97.00217064 -136 96 C-135.74052643 93.47602985 -135.57892779 91.03033224 -135.5 88.5 C-135.42107221 85.96966776 -135.25947357 83.52397015 -135 81 C-132.44002901 79.7200145 -130.15553236 79.56167523 -127.3125 79.1875 C-89.5988135 73.4359574 -49.73064151 54.1975654 -22 28 C-20.85724609 26.95392578 -20.85724609 26.95392578 -19.69140625 25.88671875 C-13.37596954 19.89964097 -8.75437321 13.24519206 -4 6 C-3.24704801 4.86785436 -2.49317643 3.73631963 -1.73828125 2.60546875 C-1.16464844 1.74566406 -0.59101562 0.88585937 0 0 Z " fill="#EBAE8C" transform="translate(553,174)"/>
<path d="M0 0 C0.59683594 0.40089844 1.19367188 0.80179687 1.80859375 1.21484375 C22.54105705 14.80030633 43.88160931 24.6859679 69.296875 20.63378906 C82.39734601 17.71650825 94.58895643 10.68642768 105.4609375 3.03125 C107 2 107 2 108 2 C108.10957031 3.16015625 108.21914063 4.3203125 108.33203125 5.515625 C110.37749181 26.14289931 114.97318668 43.59241141 131.57714844 57.30224609 C147.5930653 69.70213785 165.85685497 75.36112129 185.375 79.5 C188.10706983 80.09833695 190.83700369 80.7060278 193.56640625 81.31640625 C194.22237289 81.46296158 194.87833954 81.60951691 195.55418396 81.76051331 C223.45671808 88.03298682 250.16709573 99.71815276 268 123 C268 123.66 268 124.32 268 125 C223.28231849 140.39174435 174.75874981 149.03437089 127.6875 152.8125 C126.62618362 152.89859024 126.62618362 152.89859024 125.54342651 152.98641968 C99.62870248 155.03384638 73.66593086 155.20441992 47.6875 155.1875 C46.87241344 155.18738041 46.05732689 155.18726082 45.21754074 155.1871376 C-45.16392395 155.17037698 -45.16392395 155.17037698 -60 148 C-63.99467501 143.16923022 -65.96108157 136.92833443 -65.609375 130.6953125 C-64.29088273 124.86351975 -61.112275 120.03121141 -58 115 C-57.44441406 113.90816406 -56.88882812 112.81632812 -56.31640625 111.69140625 C-54.45265127 108.43294821 -52.99790897 106.27253436 -50 104 C-44.47831166 103.20104188 -39.46218457 103.97892248 -34 105 C-25.37315915 106.56632809 -16.75308465 107.63385315 -8.02709961 108.43261719 C-5.93595819 108.62514195 -3.84596204 108.82779084 -1.75585938 109.03125 C9.60392958 110.15760753 9.60392958 110.15760753 21 110 C22.33187793 108.88833136 22.33187793 108.88833136 22.1875 106.0625 C22.33278733 102.89107141 22.33278733 102.89107141 20 101 C17.57851032 100.64868505 15.24415145 100.4136501 12.80859375 100.25390625 C12.07922607 100.19830536 11.3498584 100.14270447 10.59838867 100.0854187 C9.02834045 99.96610914 7.45799928 99.85060635 5.88742065 99.73849487 C1.78780215 99.44399071 -2.30913934 99.11636439 -6.40625 98.7890625 C-7.22380264 98.72418137 -8.04135529 98.65930023 -8.88368225 98.592453 C-16.12674716 98.00888982 -23.34502439 97.28523936 -30.5625 96.4375 C-31.58867432 96.322854 -32.61484863 96.20820801 -33.67211914 96.09008789 C-34.60660889 95.97656982 -35.54109863 95.86305176 -36.50390625 95.74609375 C-37.30642822 95.64997803 -38.1089502 95.5538623 -38.93579102 95.45483398 C-41 95 -41 95 -44 93 C-43.52820313 92.10474609 -43.52820313 92.10474609 -43.046875 91.19140625 C-40.46391747 85.95547127 -38.76289208 81.17449721 -37.77734375 75.44848633 C-36.09339499 65.98547089 -36.09339499 65.98547089 -32.5859375 62.82421875 C-29.77295218 61.386729 -26.91879619 60.20400343 -24 59 C-11.96339136 50.95469735 -5.35866381 36.23862815 -2.43969727 22.46191406 C-1.66870371 18.1450351 -1.26571989 13.80267386 -0.875 9.4375 C-0.74544922 8.06754883 -0.74544922 8.06754883 -0.61328125 6.66992188 C-0.40379445 4.44703416 -0.19945316 2.22380651 0 0 Z " fill="#EBAD8C" transform="translate(462,399)"/>
<path d="M0 0 C7.24126347 1.40531795 14.43605645 2.97413446 21.625 4.625 C22.62917969 4.85445312 23.63335937 5.08390625 24.66796875 5.3203125 C27.11225685 5.87900692 29.55625849 6.43892054 32 7 C32.14775879 7.76707275 32.29551758 8.53414551 32.44775391 9.32446289 C35.2440873 23.18868878 42.1698213 34.02786926 52 44 C60.52606575 53.22207112 66.41712556 60.63690545 66.359375 73.55859375 C65.69024874 79.96620499 62.50222852 84.74665723 59 90 C58.34 90 57.68 90 57 90 C56.81824219 88.06447266 56.81824219 88.06447266 56.6328125 86.08984375 C56.46387992 84.37236253 56.29459013 82.65491642 56.125 80.9375 C56.04636719 80.08994141 55.96773438 79.24238281 55.88671875 78.36914062 C55.38350594 73.35636691 54.54885904 68.79625677 53 64 C49.52852158 63.25042843 49.52852158 63.25042843 46 63 C46.49756926 75.34576242 47.48027639 87.54900778 48.95768929 99.81526375 C49.29545355 102.62068415 49.62532932 105.42694449 49.95347595 108.23350525 C50.64978087 114.17730461 51.35549141 120.11996568 52.0625 126.0625 C52.88654444 132.99139968 53.70655673 139.92073402 54.51711845 146.8512249 C54.84034474 149.59802256 55.17048582 152.34392927 55.50099182 155.08985901 C56.79701784 166.02251292 57.71929228 176.31644825 55.828125 187.234375 C55.70565903 187.98328003 55.58319305 188.73218506 55.45701599 189.50378418 C55.19583227 191.09831678 54.93131751 192.69230694 54.66366577 194.2857666 C53.95793958 198.48982256 53.27718153 202.69789106 52.59765625 206.90625 C52.46063797 207.75270081 52.32361969 208.59915161 52.18244934 209.47125244 C50.65757245 218.98309424 49.40591696 228.52743729 48.20605469 238.08496094 C48.05942383 239.23770508 47.91279297 240.39044922 47.76171875 241.578125 C47.63756592 242.58262695 47.51341309 243.58712891 47.38549805 244.62207031 C47 247 47 247 46 249 C43.24991865 248.35451147 40.49993244 247.70862234 37.75 247.0625 C36.97269531 246.88009766 36.19539063 246.69769531 35.39453125 246.50976562 C34.64042969 246.33251953 33.88632812 246.15527344 33.109375 245.97265625 C32.41811523 245.81031494 31.72685547 245.64797363 31.01464844 245.48071289 C29.70796224 245.16892604 28.40799747 244.82683964 27.11865234 244.44970703 C22.16402089 243.39803255 16.91810412 243.81521426 11.875 243.8125 C10.66972656 243.80025391 9.46445312 243.78800781 8.22265625 243.77539062 C6.49982422 243.77249023 6.49982422 243.77249023 4.7421875 243.76953125 C3.16219971 243.76336792 3.16219971 243.76336792 1.55029297 243.75708008 C-1.16736518 243.74278451 -1.16736518 243.74278451 -3 246 C-3.16677282 249.58343976 -3.16677282 249.58343976 -3 253 C-2.35675781 252.97905273 -1.71351563 252.95810547 -1.05078125 252.93652344 C20.74403646 252.32247543 37.2685292 256.36213156 57.10546875 265.29296875 C76.16526112 273.83174229 95.68032437 280.9162157 116.08666992 285.50512695 C121.80872414 286.80872414 121.80872414 286.80872414 124 289 C123.55269531 289.69222656 123.10539063 290.38445312 122.64453125 291.09765625 C112.62124753 307.31870602 108.35418905 325.87888276 111.671875 344.83984375 C112.36652166 347.59549394 113.11104177 350.30137679 114 353 C100.82981624 352.52879486 87.96328506 350.22830585 75 348 C73.66978371 347.77410642 72.33954211 347.54836187 71.00927734 347.32275391 C-7.44681725 333.96204161 -7.44681725 333.96204161 -26.25 309 C-32.81900171 298.60057222 -34.17883961 285.09177893 -34.1875 273.0625 C-34.19974609 272.23298828 -34.21199219 271.40347656 -34.22460938 270.54882812 C-34.26802134 250.53591023 -31.21649568 230.46906995 -29.02976799 210.60331917 C-25.56150312 179.06935756 -22.52625319 147.52505646 -19.99121094 115.90234375 C-18.94257122 102.84996426 -17.8369778 89.81046052 -16.4453125 76.7890625 C-16.32778122 75.68917496 -16.21024994 74.58928741 -16.0891571 73.45606995 C-13.38223295 48.82710353 -10.24620449 22.80460556 0 0 Z " fill="#FCF6EE" transform="translate(289,535)"/>
<path d="M0 0 C0.6899707 0.31952637 1.37994141 0.63905273 2.09082031 0.96826172 C31.20036285 14.77528899 49.47940182 37.83668119 63.125 66.375 C63.43268311 67.01163574 63.74036621 67.64827148 64.05737305 68.30419922 C64.76942781 69.84119291 65.39362271 71.41833057 66 73 C65.67 73.66 65.34 74.32 65 75 C64.32517578 73.94425781 64.32517578 73.94425781 63.63671875 72.8671875 C43.78281517 42.39005295 19.13585537 22.25181808 -16.51660156 13.37329102 C-24.01252297 11.79538693 -31.47947287 11.66083898 -39.10498047 11.68432617 C-41.23327482 11.68747525 -43.36015853 11.66397742 -45.48828125 11.63867188 C-57.87402908 11.5805783 -69.75774901 13.36591663 -81.4375 17.6875 C-82.13866943 17.9438623 -82.83983887 18.20022461 -83.56225586 18.46435547 C-97.9913931 23.89729974 -110.05403648 31.28278607 -122 41 C-122.93714844 41.75152344 -123.87429688 42.50304687 -124.83984375 43.27734375 C-146.22708811 61.42102498 -160.63768863 90.08609217 -163.82568359 117.80151367 C-164.17092878 122.15576148 -164.14301368 126.50968538 -164.125 130.875 C-164.12886719 131.80441406 -164.13273438 132.73382813 -164.13671875 133.69140625 C-164.13018616 138.37527022 -163.91004776 142.83463129 -163.23828125 147.47265625 C-162.77478221 151.70271251 -162.77478221 151.70271251 -164.66015625 154.19140625 C-165.45292969 154.64386719 -166.24570312 155.09632813 -167.0625 155.5625 C-173.84048311 160.06358676 -178.23615694 166.38671719 -180.52734375 174.234375 C-182.53049638 185.95530114 -181.9902548 199.25901938 -175.3984375 209.484375 C-174.85445312 210.23203125 -174.31046875 210.9796875 -173.75 211.75 C-171.1750821 215.38904213 -170.07545489 217.89082262 -170.42578125 222.375 C-174.43572954 240.70619218 -186.6162406 256.12618451 -197.47363281 270.91210938 C-212.38083266 291.30340385 -223.67649587 310.80340918 -221 337 C-220.31551421 340.54123514 -219.42336676 344.01434626 -218.5 347.5 C-215.4747686 359.04916047 -213.29908919 372.30824604 -218.16796875 383.71484375 C-221.86353809 388.32445583 -227.62623636 390.02543867 -232.97314453 392.14648438 C-242.5274371 396.16982897 -251.29718799 402.12476283 -259 409 C-259.83144531 409.73734375 -260.66289062 410.4746875 -261.51953125 411.234375 C-278.63363455 427.32320944 -286.36976536 449.50356785 -291 472 C-291.20189941 472.9477832 -291.40379883 473.89556641 -291.61181641 474.87207031 C-296.73913798 499.51358614 -298.49217979 524.65952369 -300.7064209 549.68908691 C-301.08554089 553.96470914 -301.47085513 558.23976261 -301.8561554 562.51483154 C-302.69085778 571.78066794 -303.51176199 581.04763824 -304.32234192 590.31561279 C-305.19022795 600.21263329 -306.09477725 610.10633556 -307 620 C-323.18152501 615.93352517 -340.78052893 610.10203387 -350.17657471 595.12451172 C-351.20298871 592.47627076 -350.89010428 591.67785519 -349.76855469 589.11328125 C-349.44537766 588.35286026 -349.12220062 587.59243927 -348.78923035 586.80897522 C-348.23613945 585.57321999 -348.23613945 585.57321999 -347.671875 584.3125 C-347.29658157 583.43996078 -346.92128815 582.56742157 -346.53462219 581.66844177 C-345.7170693 579.77197014 -344.89248591 577.87851763 -344.0617981 575.98776245 C-342.27590945 571.92020735 -340.52630206 567.83737089 -338.77406311 563.75523376 C-337.86364882 561.63539331 -336.95146379 559.51631254 -336.0375824 557.39796448 C-331.60553987 547.12137628 -327.29974012 536.7957795 -323.0625 526.4375 C-322.70038422 525.55294128 -322.33826843 524.66838257 -321.96517944 523.75701904 C-308.52397332 490.85833911 -295.76457649 457.63652178 -283.78204346 424.17816162 C-282.90502057 421.73546157 -282.02280265 419.29467042 -281.14013672 416.85400391 C-251.18233101 333.94986024 -227.5912494 248.91111053 -204.75 163.8125 C-176.91560745 60.17045676 -176.91560745 60.17045676 -147 29 C-146.16984375 28.10667969 -145.3396875 27.21335938 -144.484375 26.29296875 C-125.09743228 6.02737804 -99.50049118 -5.58634092 -72 -10 C-70.66001953 -10.27070312 -70.66001953 -10.27070312 -69.29296875 -10.546875 C-46.14440034 -13.73220589 -21.18145686 -9.82226474 0 0 Z " fill="#FBF6EF" transform="translate(561,93)"/>
<path d="M0 0 C2.08978388 1.82522246 4.14201854 3.68793293 6.1875 5.5625 C7.04859375 6.32949219 7.9096875 7.09648437 8.796875 7.88671875 C31.03042721 28.73952489 42.79971058 59.12590219 48.1875 88.5625 C48.39246094 89.65691406 48.59742188 90.75132812 48.80859375 91.87890625 C49.69427847 96.8570652 50.28441078 101.49332092 50.1875 106.5625 C49.20910156 106.54509766 49.20910156 106.54509766 48.2109375 106.52734375 C43.4113086 106.47779006 38.90965315 106.56836249 34.1875 107.5625 C33.754375 106.325 33.754375 106.325 33.3125 105.0625 C30.74289972 99.92329945 25.66927493 96.93182295 21.1875 93.5625 C-0.00743944 77.15242765 -22.88484689 54.6171651 -26.8125 26.5625 C-27.09138373 22.65812774 -27.31182763 18.76675891 -27.46875 14.85546875 C-27.56880171 11.42395639 -27.56880171 11.42395639 -29.8125 8.5625 C-32.26959375 7.97899495 -32.26959375 7.97899495 -34.8125 8.5625 C-37.36943278 11.40062999 -38.61160887 14.3245582 -39.9375 17.875 C-54.01795409 52.4437795 -86.08992472 75.37072657 -119.47460938 89.70556641 C-125.52576522 92.16261611 -131.65284142 94.39438011 -137.8125 96.5625 C-138.52986328 96.81902344 -139.24722656 97.07554687 -139.98632812 97.33984375 C-153.91648766 102.30053579 -167.0838412 105.01419306 -181.8125 105.5625 C-188.2891876 80.34968041 -182.00555285 53.76187772 -169.15234375 31.71484375 C-155.68116437 9.89705665 -137.91416637 -4.94552001 -114.8125 -15.4375 C-113.91917969 -15.84742187 -113.02585937 -16.25734375 -112.10546875 -16.6796875 C-75.54226254 -32.32364637 -30.3222384 -25.5484227 0 0 Z " fill="#513F35" transform="translate(589.8125,139.4375)"/>
<path d="M0 0 C2.53372819 1.16941301 4.43338029 2.35083166 6.625 4.125 C11.10029364 6.61127424 14.97197526 6.71354807 20 6 C20.67804688 5.64164062 21.35609375 5.28328125 22.0546875 4.9140625 C24 4 24 4 25.97631836 4.16064453 C28.8134838 5.33740587 29.16120238 6.71324046 30.32421875 9.515625 C30.71287109 10.43730469 31.10152344 11.35898437 31.50195312 12.30859375 C31.89318359 13.27925781 32.28441406 14.24992187 32.6875 15.25 C33.09033203 16.20519531 33.49316406 17.16039062 33.90820312 18.14453125 C43.56545089 41.40604263 34.44190646 64.74941593 25.91699219 86.87475586 C23.65696217 92.7546775 22.87800551 97.32465157 23.0078125 103.625 C23.0253531 105.15233683 23.04225899 106.67968105 23.05859375 108.20703125 C23.08929954 110.59184778 23.124534 112.9762831 23.17138672 115.36083984 C23.41610863 128.52907835 22.37068046 139.83031326 15.8125 151.5625 C15.41957764 152.28574463 15.02665527 153.00898926 14.62182617 153.75415039 C11.72979991 158.96723248 8.45483751 163.7717083 4.8515625 168.5234375 C-2.1522235 177.89137067 -7.46102433 188.00313822 -6 200 C-4.3971602 208.99611886 0.30763479 215.23436595 5.80078125 222.32421875 C12.96631948 231.93652613 18.12248672 242.72890741 17.44921875 254.9375 C15.49193641 268.28105963 7.60410753 278.06424632 -3 286 C-12.72108264 291.94737043 -21.65721171 293.75036907 -33 293 C-33.66 292.67 -34.32 292.34 -35 292 C-34.58621094 291.21302734 -34.58621094 291.21302734 -34.1640625 290.41015625 C-28.85946058 279.42713818 -25.75144484 269.38443272 -29.5 257.5 C-32.86863678 249.24216123 -38.32175583 242.68345373 -44.44165039 236.31152344 C-56.82839775 223.40275899 -63.53903614 209.92041993 -63.42236328 191.77026367 C-63.01376703 179.03300997 -58.05629327 167.83329737 -50.56640625 157.6484375 C-41.12576293 144.66048658 -36.28329705 130.22389903 -38.55078125 114.078125 C-38.80214844 112.81484375 -39.05351562 111.5515625 -39.3125 110.25 C-39.44567627 109.56607178 -39.57885254 108.88214355 -39.71606445 108.17749023 C-40.5884888 103.77448158 -41.61440219 99.4213211 -42.6875 95.0625 C-46.67854324 77.83132918 -40.63180764 61.34669863 -31.67456055 46.61816406 C-28.99704816 42.43189159 -26.05075035 38.46773695 -23.0625 34.5 C-21.82089727 32.83126263 -20.580003 31.1619979 -19.33984375 29.4921875 C-18.75702637 28.7094043 -18.17420898 27.92662109 -17.57373047 27.12011719 C-11.21564937 18.55456084 -4.78345244 9.56690488 0 0 Z " fill="#513E35" transform="translate(393,337)"/>
<path d="M0 0 C1.01191406 0.21785156 2.02382813 0.43570313 3.06640625 0.66015625 C10.65275053 2.50875945 16.6671059 5.1673593 21 12 C21.1015625 14.66015625 21.1015625 14.66015625 21 17 C19.27716797 16.49339844 19.27716797 16.49339844 17.51953125 15.9765625 C-1.401533 10.49715002 -23.5703251 5.99127435 -43 12 C-44.28322547 13.0595877 -44.28322547 13.0595877 -44.125 15.5 C-44.28322547 17.9404123 -44.28322547 17.9404123 -43 19 C-40.85738492 19.05136797 -38.71311325 19.03511743 -36.5703125 18.9921875 C-35.21266153 18.97186883 -33.85499415 18.9526246 -32.49731445 18.93432617 C-31.78306305 18.92388275 -31.06881165 18.91343933 -30.33291626 18.90267944 C10.06789448 18.39619649 10.06789448 18.39619649 23.34765625 28.84765625 C25.34025088 31.44321096 25.35505596 32.80449637 25 36 C23.73027344 35.86722656 22.46054687 35.73445312 21.15234375 35.59765625 C19.4140768 35.41913154 17.67579471 35.24075422 15.9375 35.0625 C15.10927734 34.97548828 14.28105469 34.88847656 13.42773438 34.79882812 C0.73887073 33.50600051 -11.88986366 32.81320931 -24.63867188 32.81469727 C-26.79055123 32.8124578 -28.94195713 32.79404919 -31.09375 32.77539062 C-32.47395661 32.77246468 -33.85416561 32.77047455 -35.234375 32.76953125 C-36.46381836 32.76542236 -37.69326172 32.76131348 -38.95996094 32.75708008 C-42.17609453 32.76591791 -42.17609453 32.76591791 -45 35 C-45.33343551 37.54207971 -45.33343551 37.54207971 -45 40 C-43.11599023 41.88400977 -39.85509176 41.19840395 -37.34375 41.24609375 C-35.92536875 41.27774471 -34.5069933 41.30965682 -33.08862305 41.34179688 C-32.33946625 41.35718506 -31.59030945 41.37257324 -30.81845093 41.38842773 C-19.0842093 41.63679435 -7.38864144 42.03759528 4.3125 43 C5.32957031 43.08306396 6.34664062 43.16612793 7.39453125 43.25170898 C11.66989909 43.62499617 15.79777681 44.10561262 20 45 C19.67 47.31 19.34 49.62 19 52 C10.78927826 54.73690725 1.37889454 54.17098764 -7.1953125 54.28125 C-9.47916701 54.31898977 -11.76302117 54.35675077 -14.046875 54.39453125 C-17.61098412 54.44845794 -21.17511314 54.50072441 -24.73925781 54.55224609 C-28.20385276 54.60373789 -31.66831706 54.66100472 -35.1328125 54.71875 C-36.20870636 54.73232544 -37.28460022 54.74590088 -38.39309692 54.7598877 C-39.87131424 54.78496399 -39.87131424 54.78496399 -41.37939453 54.81054688 C-42.25000519 54.82307495 -43.12061584 54.83560303 -44.01760864 54.84851074 C-46.00070884 54.78365118 -46.00070884 54.78365118 -47 56 C-47.2500773 58.45809998 -47.2500773 58.45809998 -47 61 C-44.44363914 63.55636086 -43.45895622 63.26835607 -39.90771484 63.31884766 C-38.84676605 63.33871735 -37.78581726 63.35858704 -36.69271851 63.37905884 C-35.54373077 63.39061005 -34.39474304 63.40216125 -33.2109375 63.4140625 C-32.03737701 63.43342865 -30.86381653 63.4527948 -29.6546936 63.4727478 C-25.89487039 63.53267664 -22.13501677 63.57898246 -18.375 63.625 C-15.83071558 63.6631675 -13.28644425 63.70221849 -10.7421875 63.7421875 C-4.49490759 63.83838905 1.75245072 63.92339738 8 64 C-6.12387474 75.04909621 -29.7310118 74.31249102 -47 76 C-48.04309326 76.1045752 -49.08618652 76.20915039 -50.16088867 76.31689453 C-72.40173606 78.37910857 -106.78213261 81.53461646 -126 68 C-131.23125841 56.74084485 -127.96684346 42.16053817 -124 31 C-122.21657928 26.86507155 -120.28485037 22.88119916 -118 19 C-117.58234375 18.236875 -117.1646875 17.47375 -116.734375 16.6875 C-114.09653622 14.12095416 -111.9333714 14.63831366 -108.3125 14.6875 C-94.15358987 14.38861366 -80.49040853 8.94736493 -67.25 4.3125 C-45.74797545 -2.87865328 -22.28716151 -4.81642014 0 0 Z " fill="#EAAD8C" transform="translate(537,813)"/>
<path d="M0 0 C0.03440186 0.59723877 0.06880371 1.19447754 0.10424805 1.80981445 C0.96633414 15.78897487 2.94641675 28.6101517 7 42 C16.47763661 73.69047109 22.40373456 107.32340816 6 138 C4.15903202 140.82421225 2.22073225 143.46427027 0 146 C-19.61725469 142.03481022 -37.94155759 133.76186629 -50 117 C-57.97397465 104.55972807 -60.77918826 86.53244474 -58 72 C-55.71332166 67.72723954 -52.62200018 65.14979867 -49 62 C-34.68278152 45.39554538 -26.84267144 25.96487987 -21 5 C-20.35933594 5.03480469 -19.71867188 5.06960938 -19.05859375 5.10546875 C-11.77519308 5.33341423 -5.92222169 0 0 0 Z " fill="#513E35" transform="translate(639,320)"/>
<path d="M0 0 C6.92441058 1.94341858 13.54614589 4.31100894 20.1875 7.0625 C26.92609018 9.89147626 26.92609018 9.89147626 33.91015625 11.9921875 C39.01706698 13.65790554 40.64542287 17.39819727 43 22 C48.20615006 34.53932641 49.22338044 49.27699534 44 62 C41.8179695 64.1820305 40.87097978 64.4771926 37.95703125 65.21875 C37.13855713 65.42798096 36.32008301 65.63721191 35.47680664 65.8527832 C34.59758545 66.06636475 33.71836426 66.27994629 32.8125 66.5 C31.45209595 66.83100708 31.45209595 66.83100708 30.06420898 67.16870117 C18.70134077 69.86030251 7.7176595 71.16142399 -3.9375 71.3125 C-5.2522229 71.33920776 -5.2522229 71.33920776 -6.59350586 71.36645508 C-12.40018725 71.35925282 -16.67905195 70.33677788 -22 68 C-19.78731784 65.70221468 -17.60143713 63.6947178 -15.0625 61.75 C-11.96948376 59.23206718 -10.22305106 56.3473853 -8.23046875 52.9296875 C-6.51529492 50.23985933 -4.30965391 48.18133981 -2 46 C-0.78306124 43.56612247 -0.68040104 41.58161154 -0.4375 38.875 C-0.35371094 37.96492187 -0.26992188 37.05484375 -0.18359375 36.1171875 C-0.09271484 35.06917969 -0.09271484 35.06917969 0 34 C1.485 33.505 1.485 33.505 3 33 C4.44733079 28.65800764 4.53851834 24.53894033 4 20 C2.99582989 18.33684325 1.98963081 16.67238435 0.890625 15.0703125 C-1.1002015 10.44251406 -0.26733733 4.93831457 0 0 Z " fill="#EBAE8C" transform="translate(567,822)"/>
<path d="M0 0 C2.18501376 1.05768594 4.18677698 2.30326282 6.25 3.58203125 C9.70115779 5.36153449 13.27963109 6.33581957 17 7.375 C27.21254553 10.34339313 34.89000772 16.1805171 41 25 C42.94578494 30.74632395 42.86248037 36.83141373 40.25 42.3125 C38.21951555 45.90159575 36.16017206 49.07421198 32.25 50.75 C23.52541442 51.7193984 16.82455128 50.26607954 9.47265625 45.2890625 C6.53005962 42.5649525 4.60070984 39.5688857 2.625 36.125 C2.24142334 35.47023682 1.85784668 34.81547363 1.46264648 34.14086914 C-12.05142567 10.78054994 -12.05142567 10.78054994 -11 3 C-8.69777008 -1.17279174 -4.19743315 -0.79350768 0 0 Z " fill="#E88C77" transform="translate(485,631)"/>
<path d="M0 0 C0.99 0 1.98 0 3 0 C4.75390625 2.16015625 4.75390625 2.16015625 6.5625 5.0625 C7.46162109 6.47208984 7.46162109 6.47208984 8.37890625 7.91015625 C11.64751465 14.14020263 12.36363708 19.91629959 12.3125 26.8125 C12.30686035 27.60785156 12.3012207 28.40320313 12.29541016 29.22265625 C12.06836629 40.22866411 8.67223975 49.57146162 1.30078125 57.92578125 C-1.59800216 60.65519754 -3.79665223 61.93338608 -7.625 63.1875 C-11 63 -11 63 -13.75 61 C-19.54147522 53.27803304 -19.88873665 46.52808367 -19 37 C-16.49457591 24.27244563 -8.6325089 9.66018853 0 0 Z " fill="#E88C77" transform="translate(476,669)"/>
<path d="M0 0 C1.73937893 3.08553686 2.42919162 5.76263853 2.92626953 9.26025391 C3.0807959 10.32173645 3.23532227 11.38321899 3.39453125 12.47686768 C3.55566406 13.63176697 3.71679688 14.78666626 3.8828125 15.9765625 C4.14553955 17.79543976 4.14553955 17.79543976 4.41357422 19.65106201 C4.79173389 22.27147096 5.1675457 24.89209723 5.53961182 27.5133667 C6.42828671 33.76830211 7.34109517 40.01973368 8.25329208 46.27127457 C8.46009564 47.68873245 8.66669069 49.10622078 8.87308121 50.52373886 C14.11301098 86.50190372 19.51254968 122.61021051 26.86474609 158.22900391 C27.0746241 159.24943535 27.0746241 159.24943535 27.28874207 160.29048157 C27.67258222 162.14110734 28.06391827 163.99017394 28.45581055 165.83911133 C28.93891503 168.64519194 29.11091899 171.16307194 29 174 C19.18877881 172.23076339 9.62002647 169.58772786 0 167 C1.27870526 162.89117457 2.85766931 159.20213555 4.8125 155.375 C19.29134654 123.60691656 13.22713552 90.43013909 4.27978516 58.08911133 C-0.91471529 39.26621312 -5.59998854 19.2987653 0 0 Z " fill="#F7F3EC" transform="translate(651,302)"/>
<path d="M0 0 C-0.03480469 1.09957031 -0.06960938 2.19914063 -0.10546875 3.33203125 C-0.38299802 15.69890356 0.72017252 25.18611888 7.59765625 35.80859375 C8.06042969 36.53175781 8.52320313 37.25492188 9 38 C9.47308594 38.60328125 9.94617188 39.2065625 10.43359375 39.828125 C11 42 11 42 9.4375 45.36328125 C8.63788048 46.68755097 7.8244488 48.00354399 7 49.3125 C2.94052594 56.07150474 -0.10160997 62.78758962 -2.80859375 70.18359375 C-4 73 -4 73 -6 74 C-6.30292969 73.21496094 -6.60585938 72.42992187 -6.91796875 71.62109375 C-7.54638672 70.04521484 -7.54638672 70.04521484 -8.1875 68.4375 C-8.59355469 67.40496094 -8.99960937 66.37242187 -9.41796875 65.30859375 C-10.7521506 62.51834183 -11.69474634 61.19753854 -13.66015625 58.98828125 C-17.59504588 53.67100179 -16.479178 47.04602902 -16.25 40.75 C-16.18795056 38.22407072 -16.1305891 35.69802154 -16.078125 33.171875 C-16.05177979 31.95669189 -16.02543457 30.74150879 -15.99829102 29.48950195 C-16.00029788 25.39178026 -16.32705526 21.3936224 -16.76416016 17.32275391 C-17.05300876 14.47792411 -17.09961651 11.67047153 -17.0625 8.8125 C-17.05347656 7.89082031 -17.04445313 6.96914063 -17.03515625 6.01953125 C-17.02355469 5.35308594 -17.01195312 4.68664062 -17 4 C-14.54453034 3.13670227 -12.08621957 2.28410564 -9.625 1.4375 C-8.57699219 1.0672168 -8.57699219 1.0672168 -7.5078125 0.68945312 C-2.2265625 -1.11328125 -2.2265625 -1.11328125 0 0 Z " fill="#FBF6EF" transform="translate(541,685)"/>
<path d="M0 0 C2.5625 1.375 2.5625 1.375 4 3 C4 3.66 4 4.32 4 5 C2.42578125 6.26171875 2.42578125 6.26171875 0.3125 7.6875 C-4.61517684 11.25220239 -8.04095985 15.12287954 -10 21 C-10.9373702 32.62339048 -7.08120385 42.86524704 0 52 C-0.70125 52.42410156 -1.4025 52.84820313 -2.125 53.28515625 C-8.25047922 57.07196745 -13.75866806 61.05903093 -19 66 C-23.86521415 63.80608297 -25.85763379 60.64445625 -27.91796875 55.875 C-32.77381166 42.01419019 -29.73508613 29.05142534 -23.6953125 16.23046875 C-18.52147324 6.541571 -12.0086822 -2.17918171 0 0 Z " fill="#E98D78" transform="translate(579,653)"/>
<path d="M0 0 C-1.68221339 12.34380903 -13.34047489 24.55040338 -22.64453125 32.1640625 C-34.35201309 40.61646874 -45.47058792 44.67404489 -60 44 C-58.33479793 42.66483798 -56.66778822 41.33193018 -55 40 C-54.15824219 39.32582031 -53.31648437 38.65164063 -52.44921875 37.95703125 C-45.98504847 32.93747045 -39.49352684 28.82900789 -32.16870117 25.18286133 C-28.16933629 23.14588538 -28.16933629 23.14588538 -26.04296875 19.359375 C-26.01650766 17.90642035 -26 16.45319559 -26 15 C-39.47694569 16.85888906 -50.59658996 25.76873051 -61 34 C-61.33 33.34 -61.66 32.68 -62 32 C-53.75153351 18.60837206 -42.75785378 6.18322266 -27 2 C-26.30261719 1.79761719 -25.60523438 1.59523438 -24.88671875 1.38671875 C-16.71771481 -0.63150575 -8.35036319 -0.17436953 0 0 Z " fill="#637B62" transform="translate(606,755)"/>
<path d="M0 0 C1.216875 0.31710937 2.43375 0.63421875 3.6875 0.9609375 C6.79223642 1.7371216 9.80812634 2.32576184 13 2.625 C14.1446875 2.73714844 14.1446875 2.73714844 15.3125 2.8515625 C15.869375 2.90054688 16.42625 2.94953125 17 3 C19.40195041 16.16026609 19.13883822 29.67153081 19 43 C18.33613281 42.6390625 17.67226563 42.278125 16.98828125 41.90625 C16.10527344 41.4421875 15.22226562 40.978125 14.3125 40.5 C13.44238281 40.0359375 12.57226562 39.571875 11.67578125 39.09375 C8.88211171 37.95181208 6.98370887 37.78495792 4 38 C0.94304647 43.32136355 -0.9599984 48.70316373 -2.6875 54.5625 C-2.90172607 55.28236084 -3.11595215 56.00222168 -3.33666992 56.74389648 C-4.60192743 61.15389125 -5.45522381 65.44423428 -6 70 C-9.17390537 66.21146534 -11.18374242 61.92270976 -13.3125 57.5 C-13.69728516 56.74074219 -14.08207031 55.98148438 -14.47851562 55.19921875 C-15.00928711 54.09513672 -15.00928711 54.09513672 -15.55078125 52.96875 C-15.87731689 52.30294922 -16.20385254 51.63714844 -16.5402832 50.95117188 C-17 49 -17 49 -16.17163086 46.84570312 C-15.0022689 45.00357426 -13.76578123 43.5646774 -12.25 42 C-3.85590435 32.43319981 -0.85941746 20.89301347 -0.375 8.5 C-0.33632813 7.67757812 -0.29765625 6.85515625 -0.2578125 6.0078125 C-0.16468308 4.0055299 -0.08131015 2.00279738 0 0 Z " fill="#FAF6EF" transform="translate(497,688)"/>
<path d="M0 0 C0.66 0 1.32 0 2 0 C3.69140625 1.71484375 3.69140625 1.71484375 5.5625 3.9375 C6.18253906 4.66839844 6.80257813 5.39929688 7.44140625 6.15234375 C7.95574219 6.76207031 8.47007812 7.37179687 9 8 C9.33 8.33 9.66 8.66 10 9 C10.95998496 27.79784504 9.74987591 49.17845662 -3.12890625 64.09375 C-6.23908523 67.26236658 -9.38053699 70.41229196 -13 73 C-13.66 73 -14.32 73 -15 73 C-15.08266396 70.41598581 -15.1412654 67.83473434 -15.1875 65.25 C-15.21263672 64.53972656 -15.23777344 63.82945312 -15.26367188 63.09765625 C-15.40987822 52.08344518 -11.40528852 42.06812197 -7.5 31.9375 C-3.53757491 21.36546678 -1.16254194 11.21118032 0 0 Z " fill="#523F35" transform="translate(441,380)"/>
<path d="M0 0 C10.53708331 3.81012182 16.35124793 12.64168333 21.171875 22.36328125 C24.20951049 32.03499801 22.43350414 44.05885285 18 53 C17.02330714 54.02277615 16.0263337 55.02704618 15 56 C14.9498877 55.31373535 14.89977539 54.6274707 14.84814453 53.92041016 C14.61652728 50.8211507 14.37094351 47.72315407 14.125 44.625 C14.00705078 43.00464844 14.00705078 43.00464844 13.88671875 41.3515625 C13.76103516 39.8046875 13.76103516 39.8046875 13.6328125 38.2265625 C13.55949707 37.27346191 13.48618164 36.32036133 13.41064453 35.33837891 C13.19826166 32.81549808 13.19826166 32.81549808 11 31 C9.68 31 8.36 31 7 31 C7 39.91 7 48.82 7 58 C1.28729282 52.28729282 1.28729282 52.28729282 -0.6875 49.125 C-1.08324219 48.50882813 -1.47898437 47.89265625 -1.88671875 47.2578125 C-4.95701778 41.03103061 -5.41745277 34.93291475 -5.4375 28.125 C-5.44136719 27.21403564 -5.44523437 26.30307129 -5.44921875 25.36450195 C-5.29868073 16.35339039 -3.0853441 8.40756267 0 0 Z " fill="#627B61" transform="translate(505,736)"/>
<path d="M0 0 C2.36328125 0.9765625 2.36328125 0.9765625 4 3 C4.55130508 5.98898908 4.46981481 8.90810826 4.375 11.9375 C4.35920898 12.7934375 4.34341797 13.649375 4.32714844 14.53125 C3.95246025 28.52664531 1.51496995 43.08950113 -8 54 C-9.485 54.495 -9.485 54.495 -11 55 C-10.76410156 54.23042969 -10.76410156 54.23042969 -10.5234375 53.4453125 C-8.70134998 44.93317227 -8.92334661 35.80679555 -13.375 28.21875 C-17.33592593 22.81056267 -21.9472841 18.02635795 -28 15 C-22.72152811 3.12343824 -12.75558283 -2.20277133 0 0 Z " fill="#E88D78" transform="translate(545,621)"/>
<path d="M0 0 C6.13352848 3.51761327 10.09328697 8.16952677 14 14 C10.77323034 14 9.29563666 13.3889056 6.39453125 12.06640625 C5.49283203 11.66486328 4.59113281 11.26332031 3.66210938 10.84960938 C1.78005255 9.99952339 -0.10019994 9.14542998 -1.97851562 8.28710938 C-7.42500025 5.87117404 -12.04258581 4.38502677 -18 4 C-17.01720018 9.34529905 -17.01720018 9.34529905 -13.20263672 12.98803711 C-12.04006348 13.4960083 -10.87749023 14.00397949 -9.6796875 14.52734375 C-9.06102814 14.8059877 -8.44236877 15.08463165 -7.80496216 15.37171936 C-5.83798275 16.25113165 -3.85776678 17.09437885 -1.875 17.9375 C-0.53412712 18.52957584 0.80573169 19.12395392 2.14453125 19.72070312 C5.41836945 21.17397533 8.70500656 22.5952389 12 24 C12 24.66 12 25.32 12 26 C-3.56850756 26.69227553 -15.14576222 25.9589001 -27.53515625 15.45703125 C-32.67153633 10.3369313 -38.68742557 3.9377233 -41 -3 C-28.36129486 -8.17604865 -11.89122423 -6.0984763 0 0 Z " fill="#637C62" transform="translate(473,763)"/>
<path d="M0 0 C8.42075115 0.94636882 16.09421151 3.63245319 24.00488281 6.52368164 C25.25156738 6.97795532 25.25156738 6.97795532 26.5234375 7.44140625 C27.26513184 7.71670166 28.00682617 7.99199707 28.77099609 8.27563477 C31.1601595 9.05204745 33.52999246 9.55211761 36 10 C36 9.01 36 8.02 36 7 C35.34 6.67 34.68 6.34 34 6 C35.32 6 36.64 6 38 6 C37.96519531 7.05058594 37.93039062 8.10117187 37.89453125 9.18359375 C37.71366461 17.01027132 37.719068 23.73393596 41 31 C41.391875 32.010625 41.78375 33.02125 42.1875 34.0625 C42.455625 34.701875 42.72375 35.34125 43 36 C27.71257022 35.49041901 17.85824259 26.12297062 7.796875 15.72265625 C3.41033958 10.92142736 0 6.74957517 0 0 Z " fill="#E88E79" transform="translate(411,698)"/>
<path d="M0 0 C2 2 2 2 2.125 5.125 C2.08375 6.07375 2.0425 7.0225 2 8 C-2.80312854 10.25285941 -6.84758233 11.48838952 -12.171875 12.09765625 C-12.84421677 12.17704437 -13.51655853 12.2564325 -14.20927429 12.33822632 C-16.38835135 12.59158884 -18.56880125 12.82815929 -20.75 13.0625 C-22.26311788 13.23106056 -23.77621994 13.39976322 -25.28930664 13.56860352 C-29.85706591 14.07081407 -34.42769676 14.54119671 -39 15 C-39.70090759 15.07085815 -40.40181519 15.14171631 -41.1239624 15.21472168 C-45.55897543 15.65920986 -49.99623022 16.06108498 -54.4375 16.4375 C-55.56704102 16.54263916 -56.69658203 16.64777832 -57.86035156 16.75610352 C-58.89514648 16.83530029 -59.92994141 16.91449707 -60.99609375 16.99609375 C-62.34465454 17.10715454 -62.34465454 17.10715454 -63.72045898 17.22045898 C-66 17 -66 17 -67.78930664 15.65649414 C-69.50491454 13.30916613 -69.42581881 11.83879207 -69 9 C-67.27714162 6.60665528 -66.24662527 6.05257726 -63.33398438 5.43164062 C-62.26470703 5.34076172 -61.19542969 5.24988281 -60.09375 5.15625 C-58.8874292 5.04579346 -57.6811084 4.93533691 -56.43823242 4.8215332 C-55.13861572 4.71542725 -53.83899902 4.60932129 -52.5 4.5 C-50.46870915 4.31995355 -48.43787621 4.13523959 -46.4070282 3.95027161 C-45.01614561 3.82388352 -43.6251207 3.6990526 -42.23396301 3.57572937 C-34.09531198 2.84843962 -25.98342117 1.88868841 -17.87109375 0.9140625 C-11.87352181 0.22031351 -6.0382389 -0.32358611 0 0 Z " fill="#333337" transform="translate(616,494)"/>
<path d="M0 0 C4.76163655 0.23227495 8.6189287 2.04271686 12.8515625 4.0625 C21.72193136 7.93320641 33.98261508 7.02401731 42.95703125 3.8671875 C44.77766403 3.09437588 46.55014606 2.21030295 48.3125 1.3125 C51.18657207 -0.09111659 52.84845283 -0.43771488 56 0 C56.66 0.66 57.32 1.32 58 2 C57.82185489 4.92064212 57.46752339 6.49569178 55.4609375 8.66015625 C44.73542593 15.87075298 31.7781875 18.45951326 19 17 C11.70761141 15.42851674 3.21800576 12.60013244 -2 7 C-2.359375 4.43359375 -2.359375 4.43359375 -2 2 C-1.34 1.34 -0.68 0.68 0 0 Z " fill="#343337" transform="translate(489,354)"/>
<path d="M0 0 C0.78890625 0.26490234 1.5778125 0.52980469 2.390625 0.80273438 C5.98475018 2.02607259 9.37549017 3.3087546 12.75 5.0625 C0.45747883 11.34649191 -14.25043374 18.37960157 -28.2421875 14.16015625 C-30.94463755 13.19401316 -33.60308063 12.17074288 -36.25 11.0625 C-33.14445752 3.94628206 -26.51096873 -0.16688414 -19.71875 -3.40625 C-13.0054947 -4.85087456 -6.28330254 -2.18344763 0 0 Z " fill="#E98F7A" transform="translate(603.25,714.9375)"/>
<path d="M0 0 C0.7425 0.5775 1.485 1.155 2.25 1.75 C1.375 7.625 1.375 7.625 0.25 8.75 C-4.29590213 9.06854497 -7.67489087 8.27500799 -11.9375 6.75 C-21.69782281 3.6151355 -30.94222051 3.67029023 -40.375 7.9375 C-43.45785899 8.99216228 -45.62028684 8.47784027 -48.75 7.75 C-49.5 5 -49.5 5 -49.75 1.75 C-39.20893059 -11.59696559 -12.57089655 -8.16670773 0 0 Z " fill="#323236" transform="translate(590.75,252.25)"/>
<path d="M0 0 C1.84375 1.44140625 1.84375 1.44140625 3 3 C3.25 6.125 3.25 6.125 3 9 C2 10 2 10 -1.5 10.25 C-4.78447537 10.22662295 -7.3089278 9.65659663 -10.375 8.5 C-18.77113392 5.4952192 -25.38623773 6.81623809 -33.515625 10.03125 C-36.37806483 11.14742151 -38.91582751 11.92289569 -42 12 C-44.48751263 10.50749242 -44.88614317 9.39332359 -45.6875 6.625 C-44.86507395 3.48482782 -44.20246874 3.12095542 -41.5625 1.375 C-28.38311286 -5.90351171 -13.86046523 -6.20401064 0 0 Z " fill="#313135" transform="translate(489,250)"/>
<path d="M0 0 C0.495 0.99 0.495 0.99 1 2 C0.15511658 3.82661415 -0.77851778 5.61245368 -1.75 7.375 C-6.32274519 16.23403071 -8.17716487 25.12597843 -9 35 C-25.8929385 32.10933941 -25.8929385 32.10933941 -33 29 C-24.50000888 16.48313544 -13.51648403 6.75824201 0 0 Z " fill="#ECB18F" transform="translate(328,496)"/>
<path d="M0 0 C3.52346332 0.49164604 5.00507576 2.0949394 7.6875 4.375 C12.13414126 6.84535626 16.72521098 7.16958945 21.6875 6.375 C27.61525385 4.08665939 27.61525385 4.08665939 32.6875 0.375 C35.125 0.1875 35.125 0.1875 37.6875 0.375 C39.6875 2.375 39.6875 2.375 40.3125 5.125 C39.59870807 8.83671802 39.05218361 9.3100723 36.1875 11.5625 C27.61099722 17.25526578 20.02211474 18.43920518 9.6875 17.375 C3.97248927 15.85208883 -0.75299245 13.19755861 -4.3125 8.375 C-4.75 5.1875 -4.75 5.1875 -4.3125 2.375 C-2.3125 0.375 -2.3125 0.375 0 0 Z " fill="#313135" transform="translate(545.3125,284.625)"/>
<path d="M0 0 C4.00049722 0.38466319 5.23493858 1.74969779 8.25 4.3125 C12.87221388 6.36681728 17.25787455 6.97014527 22.25 6.3125 C25.34112878 5.08771313 27.53564777 4.11614626 29.75 1.625 C31.25 0.3125 31.25 0.3125 34.3125 0 C37.25 0.3125 37.25 0.3125 39.25 2.3125 C39.25 6.80323875 38.77910246 8.74468273 35.6875 12.0625 C28.08388455 17.49621575 20.3953183 18.3111912 11.25 17.3125 C5.30084215 15.72426329 -1.02070775 12.33840048 -4.75 7.3125 C-4.75 2.84650717 -4.63398585 0.5265893 0 0 Z " fill="#313135" transform="translate(453.75,284.6875)"/>
<path d="M0 0 C8.51561278 -0.59296337 16.75029673 0.048488 23.80078125 5.35546875 C26.2856525 7.96633348 27.01696198 10.09837948 27.625 13.625 C27 17 27 17 24.625 19.375 C20.38761305 21.9981443 18.06816767 22.49046784 13 22 C7.94025398 19.72923875 4.06626458 16.66072217 1 12 C0.03929566 9.11788698 -0.10581883 7.30149956 -0.0625 4.3125 C-0.05347656 3.50425781 -0.04445313 2.69601562 -0.03515625 1.86328125 C-0.02355469 1.24839844 -0.01195312 0.63351562 0 0 Z " fill="#E88D78" transform="translate(577,678)"/>
<path d="M0 0 C0.33 0 0.66 0 1 0 C2.34626891 9.66491742 3.67982245 19.33148523 5 29 C5.12729492 29.92893066 5.25458984 30.85786133 5.38574219 31.81494141 C5.68007771 33.98003106 5.96718421 36.1458804 6.25 38.3125 C6.39953125 39.44300781 6.5490625 40.57351563 6.703125 41.73828125 C7.04735717 45.52030571 7.04968238 49.20343851 7 53 C5.01959844 52.1905146 3.04070923 51.37732831 1.0625 50.5625 C-0.03964844 50.11003906 -1.14179688 49.65757812 -2.27734375 49.19140625 C-5 48 -5 48 -6 47 C-5.88019658 36.24504909 -4.17786524 25.64881352 -2.4375 15.0625 C-2.20054611 13.58929322 -1.96421523 12.1159861 -1.72851562 10.64257812 C-1.1594805 7.09387279 -0.58216859 3.54657748 0 0 Z " fill="#F6F2ED" transform="translate(351,742)"/>
<path d="M0 0 C2.15328189 3.60100089 2.69620104 7.3139928 3.2890625 11.3984375 C3.39721283 12.11101715 3.50536316 12.8235968 3.61679077 13.55776978 C3.84349904 15.06178712 4.06686869 16.56631104 4.28710938 18.07128906 C4.62300364 20.36138895 4.97080292 22.64944292 5.3203125 24.9375 C5.53977468 26.4035394 5.75854727 27.86968223 5.9765625 29.3359375 C6.07965729 30.01425629 6.18275208 30.69257507 6.28897095 31.39144897 C6.85284497 35.28908639 7.28912387 39.06464224 7 43 C4.91796875 44.93359375 4.91796875 44.93359375 2.1875 46.4375 C1.29417969 46.95183594 0.40085937 47.46617187 -0.51953125 47.99609375 C-3 49 -3 49 -6 48 C-5.30889356 41.9673833 -4.61505486 35.93508943 -3.91870117 29.90307617 C-3.68227539 27.85173003 -3.44659164 25.80029823 -3.21166992 23.7487793 C-2.87354245 20.79713377 -2.53273281 17.84580833 -2.19140625 14.89453125 C-2.08719864 13.97976517 -1.98299103 13.06499908 -1.87562561 12.12251282 C-1.40109396 8.04025068 -0.9078233 4.01411026 0 0 Z " fill="#FAF5EF" transform="translate(672,747)"/>
<path d="M0 0 C3.8842416 0.88278218 5.70412463 1.66519366 8.375 4.6875 C10.28500541 8.58097257 10.61221474 10.71449683 10 15 C8.50254139 17.60847629 7.12971098 19.87028902 5 22 C-2.04423118 22.64376102 -7.57765103 21.9082335 -14 19 C-13.60167969 18.56429687 -13.20335937 18.12859375 -12.79296875 17.6796875 C-9.47850869 13.95394407 -7.20127529 10.4982582 -5 6 C-3.41935802 3.90684683 -1.7359938 1.97058756 0 0 Z " fill="#E88E79" transform="translate(619,687)"/>
<path d="M0 0 C3.9666532 2.06736586 6.00086617 4.30482739 7.90625 8.2734375 C8.19921875 11.38671875 8.19921875 11.38671875 8.09375 14.5859375 C8.06667969 15.65457031 8.03960938 16.72320313 8.01171875 17.82421875 C7.97691406 18.63246094 7.94210937 19.44070313 7.90625 20.2734375 C7.24625 20.2734375 6.58625 20.2734375 5.90625 20.2734375 C4.6796875 18.8828125 4.6796875 18.8828125 3.28125 17.0234375 C-3.34660603 9.15880451 -12.34221151 8.08130699 -22.09375 6.2734375 C-15.88356688 -0.12172979 -8.79694773 -3.05267216 0 0 Z " fill="#E88F7A" transform="translate(605.09375,662.7265625)"/>
<path d="M0 0 C1.32 0 2.64 0 4 0 C4.2105572 12.12312345 3.56718334 24.20656172 3 36.3125 C2.90337571 38.4212116 2.80701941 40.52993549 2.7109375 42.63867188 C2.47704718 47.75926157 2.23953264 52.87967127 2 58 C1.67 58 1.34 58 1 58 C1 56.35 1 54.7 1 53 C0.360625 52.71125 -0.27875 52.4225 -0.9375 52.125 C-3 51 -3 51 -4 49 C-3.9876008 46.58525567 -3.89836922 44.22033587 -3.75 41.8125 C-3.70625244 41.05598145 -3.66250488 40.29946289 -3.61743164 39.52001953 C-2.77865216 26.32169038 -1.33362726 13.15561193 0 0 Z " fill="#6D8970" transform="translate(513,896)"/>
<path d="M0 0 C0.66 0.33 1.32 0.66 2 1 C6.18331928 1.28620906 6.18331928 1.28620906 10.0625 -0.0625 C12.69767166 -1.33758306 14.25261389 -0.81679047 17 0 C18 1 18 1 18.4375 3.8125 C18 7 18 7 15.625 9.3125 C9.59431447 12.11988809 3.85620966 12.95262199 -2.5 10.6875 C-6 9 -6 9 -8 7 C-7.75 3.4375 -7.75 3.4375 -7 0 C-4.30919898 -1.34540051 -2.86443593 -0.71610898 0 0 Z " fill="#313135" transform="translate(513,329)"/>
<path d="M0 0 C0.9590625 0.02835937 1.918125 0.05671875 2.90625 0.0859375 C3.8653125 0.09882813 4.824375 0.11171875 5.8125 0.125 C8.40625 0.4609375 8.40625 0.4609375 11.40625 2.4609375 C12.36693412 5.44078406 12.57833425 8.34121655 12.40625 11.4609375 C10.3665693 14.86040533 8.81823826 15.33886691 5.03125 16.4609375 C0.56956516 16.4609375 -1.20977108 15.28091993 -4.59375 12.4609375 C-5.99832737 9.65178276 -5.84270157 7.57283216 -5.59375 4.4609375 C-4.0188782 1.54217509 -3.32001 0.59000178 0 0 Z " fill="#F8F3EE" transform="translate(403.59375,318.5390625)"/>
<path d="M0 0 C0 5.43850157 -2.17888797 7.21148505 -5.78515625 11.05859375 C-8 13 -8 13 -11.5 14.25 C-15.8780917 13.93727916 -18.98569188 12.76066146 -23 11 C-21.33149773 5.95149057 -19.13087217 3.96693886 -14.73046875 1.16015625 C-9.92580835 -0.8813089 -5.11423776 -0.46729076 0 0 Z " fill="#E58B77" transform="translate(518,617)"/>
<path d="M0 0 C2.375 1 2.375 1 4 2 C3.37183502 5.94949704 2.1354471 9.19892028 0.4375 12.8125 C-0.01753906 13.78832031 -0.47257812 14.76414062 -0.94140625 15.76953125 C-1.29074219 16.50558594 -1.64007813 17.24164062 -2 18 C-5.375 17.6875 -5.375 17.6875 -9 17 C-11.81795751 12.77306373 -11.78793546 8.96318108 -11 4 C-7.77161229 0.01199165 -5.00687342 -0.63917533 0 0 Z " fill="#E78E78" transform="translate(435,675)"/>
<path d="M0 0 C-1.20381448 2.49361571 -2.45428722 4.68143083 -4 7 C-6.86328125 7.2578125 -6.86328125 7.2578125 -10.3125 7.125 C-15.07535285 6.95649297 -15.07535285 6.95649297 -19.7734375 7.58203125 C-22 8 -22 8 -24.3125 6.5625 C-24.869375 6.046875 -25.42625 5.53125 -26 5 C-24.71111971 2.1248055 -23.46733017 -0.0071564 -21 -2 C-13.66597409 -4.30679774 -6.71715619 -3.50460323 0 0 Z " fill="#E9907B" transform="translate(469,663)"/>
<path d="M0 0 C-2.97 6.27 -5.94 12.54 -9 19 C-12.3 19 -15.6 19 -19 19 C-15.02272727 4.48295455 -15.02272727 4.48295455 -10.25 0.5625 C-8 0 -8 0 0 0 Z " fill="#E88F79" transform="translate(460,677)"/>
<path d="M0 0 C0.66 0 1.32 0 2 0 C1.50392486 12.52162085 -0.49104099 23.45280556 -5 35.1875 C-5.24903076 35.84814453 -5.49806152 36.50878906 -5.75463867 37.18945312 C-6.5 39.04296875 -6.5 39.04296875 -8 42 C-9.485 42.495 -9.485 42.495 -11 43 C-9.74685771 34.78088781 -8.09912143 26.74677525 -6.0625 18.6875 C-5.68448242 17.1396582 -5.68448242 17.1396582 -5.29882812 15.56054688 C-3.93579063 10.11885498 -2.39781821 5.0747854 0 0 Z " fill="#6B866F" transform="translate(501,898)"/>
<path d="M0 0 C18.15 0.33 36.3 0.66 55 1 C51.11565333 3.91326 48.70802755 4.90129549 44.125 6.1875 C42.33449219 6.70376953 42.33449219 6.70376953 40.5078125 7.23046875 C37.20360867 7.95533307 34.36702793 8.14930246 31 8 C31 7.67 31 7.34 31 7 C31.804375 6.87625 32.60875 6.7525 33.4375 6.625 C34.283125 6.41875 35.12875 6.2125 36 6 C36.33 5.34 36.66 4.68 37 4 C28.94228241 3.17468395 20.90584396 2.72671733 12.8125 2.4375 C11.09836914 2.37272461 11.09836914 2.37272461 9.34960938 2.30664062 C6.56649189 2.20183704 3.78330535 2.09966701 1 2 C0.67 1.34 0.34 0.68 0 0 Z " fill="#F5BE97" transform="translate(490,876)"/>
<path d="M0 0 C2.49552403 2.27597646 4.06622986 4.60721178 5.6875 7.5625 C6.12449219 8.34753906 6.56148438 9.13257813 7.01171875 9.94140625 C8 12 8 12 8 14 C7.33613281 13.71382812 6.67226563 13.42765625 5.98828125 13.1328125 C2.44817782 11.79081251 -1.15229229 10.8206996 -4.8125 9.875 C-5.50537109 9.69324219 -6.19824219 9.51148438 -6.91210938 9.32421875 C-8.60732661 8.87995492 -10.30356222 8.4395801 -12 8 C-11.01 7.67 -10.02 7.34 -9 7 C-8.67 5.68 -8.34 4.36 -8 3 C-10.97 3 -13.94 3 -17 3 C-17 2.67 -17 2.34 -17 2 C-16.02417969 1.93941406 -15.04835938 1.87882813 -14.04296875 1.81640625 C-12.77066406 1.73261719 -11.49835938 1.64882813 -10.1875 1.5625 C-8.92292969 1.48128906 -7.65835937 1.40007813 -6.35546875 1.31640625 C-3.00818107 1.12815453 -3.00818107 1.12815453 0 0 Z " fill="#F2EFEA" transform="translate(470,741)"/>
<path d="M0 0 C0.99 0 1.98 0 3 0 C3.76391029 4.9274114 4.51221224 9.85684494 5.24609375 14.78881836 C5.49798904 16.46655135 5.75415144 18.1436494 6.01464844 19.82006836 C6.38817834 22.22876598 6.74634339 24.63932412 7.1015625 27.05078125 C7.2810997 28.17592888 7.2810997 28.17592888 7.46426392 29.32380676 C8.22774341 34.65838488 8.22774341 34.65838488 6 38 C5.82984375 36.9584375 5.6596875 35.916875 5.484375 34.84375 C4.08946294 26.53288738 2.50332592 18.3760785 0.18261719 10.26757812 C-0.84588049 6.48789834 -1.12395352 3.77533105 0 0 Z " fill="#ECEBE9" transform="translate(658,360)"/>
<path d="M0 0 C0.33 0 0.66 0 1 0 C0.03644647 16.70842825 0.03644647 16.70842825 -1 25 C-1.99 24.67 -2.98 24.34 -4 24 C-4 23.34 -4 22.68 -4 22 C-5.65 22.33 -7.3 22.66 -9 23 C-8.68546875 22.26136719 -8.3709375 21.52273438 -8.046875 20.76171875 C-5.15573662 13.90832748 -2.47193711 7.0153299 0 0 Z " fill="#F8F5F0" transform="translate(500,919)"/>
<path d="M0 0 C3.32971309 4.22267071 5.46008194 8.7851101 7.75 13.625 C8.17410156 14.49640625 8.59820313 15.3678125 9.03515625 16.265625 C9.43089844 17.09835938 9.82664062 17.93109375 10.234375 18.7890625 C10.77916504 19.92915771 10.77916504 19.92915771 11.33496094 21.09228516 C11.55442383 21.72183105 11.77388672 22.35137695 12 23 C11.67 23.66 11.34 24.32 11 25 C10.5153125 24.24976563 10.030625 23.49953125 9.53125 22.7265625 C5.45717289 16.50576015 1.26060103 10.65586815 -3.53125 4.9609375 C-5 3 -5 3 -5 1 C-2.525 1.495 -2.525 1.495 0 2 C0 1.34 0 0.68 0 0 Z " fill="#F3F1EF" transform="translate(615,143)"/>
<path d="M0 0 C0.99 0.33 1.98 0.66 3 1 C2.38166803 5.5275641 1.23670488 9.5390401 -0.375 13.8125 C-0.79523438 14.95332031 -1.21546875 16.09414063 -1.6484375 17.26953125 C-2.31746094 18.62111328 -2.31746094 18.62111328 -3 20 C-3.99 20.33 -4.98 20.66 -6 21 C-5.68853528 19.10399631 -5.37578283 17.20820413 -5.0625 15.3125 C-4.88847656 14.25675781 -4.71445312 13.20101562 -4.53515625 12.11328125 C-4.35855469 11.08589844 -4.18195313 10.05851563 -4 9 C-3.85433594 8.06542969 -3.70867187 7.13085938 -3.55859375 6.16796875 C-3.28208984 5.09482422 -3.28208984 5.09482422 -3 4 C-2.34 3.67 -1.68 3.34 -1 3 C-0.67 2.01 -0.34 1.02 0 0 Z " fill="#5E7862" transform="translate(496,920)"/>
<path d="M0 0 C0 5.28 0 10.56 0 16 C-0.99 16.33 -1.98 16.66 -3 17 C-2.67 18.65 -2.34 20.3 -2 22 C-2.99 22.33 -3.98 22.66 -5 23 C-4.85811015 20.45805839 -4.71160845 17.91652007 -4.5625 15.375 C-4.52318359 14.66214844 -4.48386719 13.94929687 -4.44335938 13.21484375 C-4.19770883 9.09547303 -3.93638061 5.03077746 -3 1 C-1 0 -1 0 0 0 Z " fill="#6D876F" transform="translate(514,920)"/>
<path d="M0 0 C0.66 1.65 1.32 3.3 2 5 C-0.60259124 5.53010201 -3.206557 6.04937795 -5.8125 6.5625 C-6.55048828 6.71396484 -7.28847656 6.86542969 -8.04882812 7.02148438 C-13.66015625 8.11328125 -13.66015625 8.11328125 -17 7 C-14.69 5.68 -12.38 4.36 -10 3 C-10.33 2.34 -10.66 1.68 -11 1 C-7.27569643 0.30710631 -3.78916254 -0.11144596 0 0 Z " fill="#F4F1EE" transform="translate(492,797)"/>
<path d="M0 0 C0.33 0 0.66 0 1 0 C1.66 8.25 2.32 16.5 3 25 C-1.0434431 20.9565569 -2.8204342 18.93270155 -5 14 C-4.34 14 -3.68 14 -3 14 C-0.88254802 11.80564299 -0.05410335 10.47610949 0.29296875 7.421875 C0.25816406 6.54015625 0.22335937 5.6584375 0.1875 4.75 C0.16042969 3.85796875 0.13335937 2.9659375 0.10546875 2.046875 C0.07066406 1.37140625 0.03585937 0.6959375 0 0 Z " fill="#668366" transform="translate(509,769)"/>
<path d="M0 0 C0 1.32 0 2.64 0 4 C-0.99 4.66 -1.98 5.32 -3 6 C-3.33 4.68 -3.66 3.36 -4 2 C-9.38191281 1.46180872 -13.66288501 2.83507825 -18 6 C-19.24498345 8.05013609 -19.24498345 8.05013609 -20 10 C-18.02 10.66 -16.04 11.32 -14 12 C-14 12.33 -14 12.66 -14 13 C-20.75 12.125 -20.75 12.125 -23 11 C-21.33149773 5.95149057 -19.13087217 3.96693886 -14.73046875 1.16015625 C-9.92580835 -0.8813089 -5.11423776 -0.46729076 0 0 Z " fill="#EE9880" transform="translate(518,617)"/>
<path d="M0 0 C1.92526638 2.88789958 2.29475268 3.79668241 2.6328125 7.0546875 C2.71660156 7.83457031 2.80039062 8.61445312 2.88671875 9.41796875 C2.96535156 10.22878906 3.04398438 11.03960938 3.125 11.875 C3.21136719 12.67808594 3.29773438 13.48117187 3.38671875 14.30859375 C3.79276088 18.22077745 4.11162892 22.06109373 4 26 C3.34 26 2.68 26 2 26 C1.67 26.66 1.34 27.32 1 28 C-0.20514375 18.66013591 -0.09213655 9.39792784 0 0 Z " fill="#F3F3F1" transform="translate(526,902)"/>
<path d="M0 0 C0.66 0 1.32 0 2 0 C2.33 4.62 2.66 9.24 3 14 C-4.51953125 18.78515625 -4.51953125 18.78515625 -7 20 C-7.99 19.67 -8.98 19.34 -10 19 C-9.67 15.7 -9.34 12.4 -9 9 C-6.8480563 12.22791555 -6.79913557 13.28400809 -7 17 C-4.69 15.68 -2.38 14.36 0 13 C0 8.71 0 4.42 0 0 Z " fill="#E8E7E5" transform="translate(676,776)"/>
<path d="M0 0 C0 0.66 0 1.32 0 2 C-0.85722656 2.24234375 -1.71445312 2.4846875 -2.59765625 2.734375 C-14.42920476 5.83985358 -14.42920476 5.83985358 -23 14 C-22.835 13.236875 -22.67 12.47375 -22.5 11.6875 C-21.90854604 8.96403764 -21.90854604 8.96403764 -22 6 C-18.901466 4.79741744 -15.79541934 3.61559217 -12.6875 2.4375 C-11.80642578 2.09525391 -10.92535156 1.75300781 -10.01757812 1.40039062 C-9.17001953 1.08134766 -8.32246094 0.76230469 -7.44921875 0.43359375 C-6.27879028 -0.01415405 -6.27879028 -0.01415405 -5.0847168 -0.47094727 C-3 -1 -3 -1 0 0 Z " fill="#F0C49C" transform="translate(465,244)"/>
<path d="M0 0 C2.1793144 1.75864246 2.93686419 2.69396 3.51171875 5.48046875 C3.59873047 6.82044922 3.59873047 6.82044922 3.6875 8.1875 C3.75324219 9.08855469 3.81898438 9.98960937 3.88671875 10.91796875 C3.92410156 11.60503906 3.96148438 12.29210937 4 13 C3.34 13 2.68 13 2 13 C2 14.65 2 16.3 2 18 C-0.78752362 15.21247638 -0.69513914 12.86817284 -1.25 9 C-1.44078125 7.741875 -1.6315625 6.48375 -1.828125 5.1875 C-1.88484375 4.135625 -1.9415625 3.08375 -2 2 C-1.34 1.34 -0.68 0.68 0 0 Z " fill="#FAF7F3" transform="translate(656,347)"/>
<path d="M0 0 C1.56353027 3.12706054 2.30590996 4.82070801 2.8515625 8.08203125 C2.98046875 8.84966797 3.109375 9.61730469 3.2421875 10.40820312 C3.36851562 11.20162109 3.49484375 11.99503906 3.625 12.8125 C3.7590625 13.59431641 3.893125 14.37613281 4.03125 15.18164062 C4.79614699 19.85297583 5.13899325 24.26791154 5 29 C4.525625 28.505 4.05125 28.01 3.5625 27.5 C2.24076302 25.88457803 2.24076302 25.88457803 1 26 C0.67 17.42 0.34 8.84 0 0 Z " fill="#FAF9F8" transform="translate(665,395)"/>
<path d="M0 0 C2.01003681 4.02007362 2.62082163 7.37769908 3.125 11.75 C3.21136719 12.44738281 3.29773438 13.14476562 3.38671875 13.86328125 C3.59771846 15.57472332 3.79975501 17.28726629 4 19 C2.02 18.34 0.04 17.68 -2 17 C-1.34 11.39 -0.68 5.78 0 0 Z " fill="#F2F0EC" transform="translate(672,747)"/>
<path d="M0 0 C0.33 0 0.66 0 1 0 C1.50943785 3.81129968 2.0058065 7.62419614 2.5 11.4375 C2.64308594 12.50677734 2.78617188 13.57605469 2.93359375 14.67773438 C3.7257749 20.84543049 4.15691598 26.7822041 4 33 C3.67 33 3.34 33 3 33 C-1.96875 8.09375 -1.96875 8.09375 0 0 Z " fill="#5F7764" transform="translate(529,906)"/>
<path d="M0 0 C2.31 0 4.62 0 7 0 C7 0.66 7 1.32 7 2 C10.02106753 1.85815167 13.04179097 1.71164333 16.0625 1.5625 C16.91005859 1.52318359 17.75761719 1.48386719 18.63085938 1.44335938 C23.48000209 1.19996611 28.20628212 0.77401958 33 0 C28.51896094 4.48103906 20.93957689 4.17711481 14.9375 4.3125 C9.24885669 4.24470468 5.11040987 3.45299674 0 1 C0 0.67 0 0.34 0 0 Z " fill="#22262F" transform="translate(500,367)"/>
<path d="M0 0 C0.66 0 1.32 0 2 0 C1.85796663 2.37528151 1.71148388 4.75015251 1.5625 7.125 C1.50352539 8.12273438 1.50352539 8.12273438 1.44335938 9.140625 C1.187848 13.15018817 0.73217587 17.04994196 0 21 C-0.33 21 -0.66 21 -1 21 C-1.33 18.03 -1.66 15.06 -2 12 C-2.33 12 -2.66 12 -3 12 C-2.14285714 3.42857143 -2.14285714 3.42857143 0 0 Z " fill="#718E74" transform="translate(501,898)"/>
<path d="M0 0 C3.49998201 -0.02934711 6.99993179 -0.04691445 10.5 -0.0625 C11.48226563 -0.07087891 12.46453125 -0.07925781 13.4765625 -0.08789062 C19.08674757 -0.10659124 24.45150899 0.161121 30 1 C30 1.33 30 1.66 30 2 C21.65667456 3.19190363 13.40676978 3.09283549 5 3 C5 2.67 5 2.34 5 2 C3.35 1.67 1.7 1.34 0 1 C0 0.67 0 0.34 0 0 Z " fill="#464444" transform="translate(467,562)"/>
<path d="M0 0 C1.79275866 3.11910856 2.34290718 5.67682428 2.625 9.25 C2.69976563 10.14203125 2.77453125 11.0340625 2.8515625 11.953125 C2.90054688 12.62859375 2.94953125 13.3040625 3 14 C1.35 14.66 -0.3 15.32 -2 16 C-2.20674944 10.21101581 -1.59162079 5.57067277 0 0 Z " fill="#E7E5E2" transform="translate(651,302)"/>
<path d="M0 0 C-0.33 1.98 -0.66 3.96 -1 6 C-5.62 5.34 -10.24 4.68 -15 4 C-12.19836511 2.13224341 -10.11958197 1.27321694 -6.9375 0.3125 C-6.05964844 0.04050781 -5.18179688 -0.23148438 -4.27734375 -0.51171875 C-2 -1 -2 -1 0 0 Z " fill="#ECEAE6" transform="translate(571,806)"/>
<path d="M0 0 C0.33 0 0.66 0 1 0 C2.17293889 6.3778552 3.29530838 12.50321562 3 19 C2.34 18.67 1.68 18.34 1 18 C1 17.01 1 16.02 1 15 C0.01 15.33 -0.98 15.66 -2 16 C-1.34 10.72 -0.68 5.44 0 0 Z " fill="#EBE9E7" transform="translate(351,742)"/>
<path d="M0 0 C0.66 0.33 1.32 0.66 2 1 C0.68 2.65 -0.64 4.3 -2 6 C0.00032373 7.00016187 1.83125748 7.49396008 4 8 C0.71480525 9.09506492 -1.73663415 9.09960608 -5.1875 9.0625 C-6.81751953 9.04896484 -6.81751953 9.04896484 -8.48046875 9.03515625 C-9.31191406 9.02355469 -10.14335938 9.01195312 -11 9 C-9.948125 8.1646875 -9.948125 8.1646875 -8.875 7.3125 C-5.88655739 4.90875268 -2.94059762 2.46189568 0 0 Z " fill="#688667" transform="translate(557,790)"/>
<path d="M0 0 C3.6690037 6.30836605 2.20371429 14.07864282 1 21 C0.34 20.67 -0.32 20.34 -1 20 C-1.18451025 6.3667426 -1.18451025 6.3667426 0 0 Z " fill="#262628" transform="translate(257,675)"/>
<path d="M0 0 C0.66 0 1.32 0 2 0 C4.29612756 14.59681093 4.29612756 14.59681093 4 22 C2.0408526 20.36927777 1.0931671 19.44921166 0.56762695 16.9152832 C0.54144287 16.13499756 0.51525879 15.35471191 0.48828125 14.55078125 C0.43510742 13.27944336 0.43510742 13.27944336 0.38085938 11.98242188 C0.35830078 11.10134766 0.33574219 10.22027344 0.3125 9.3125 C0.27833984 8.41982422 0.24417969 7.52714844 0.20898438 6.60742188 C0.12654352 4.40507329 0.05738449 2.20312062 0 0 Z " fill="#EDEAE7" transform="translate(747,579)"/>
<path d="M0 0 C0 4.5391754 -1.71544556 8.40715249 -4.5625 11.9375 C-6 13 -6 13 -8 13 C-8 13.99 -8 14.98 -8 16 C-9.98 16.99 -9.98 16.99 -12 18 C-10.46906512 13.32800909 -7.89242605 9.97829995 -4.875 6.1875 C-4.40707031 5.59001953 -3.93914062 4.99253906 -3.45703125 4.37695312 C-2.30994435 2.91383208 -1.15568766 1.45633703 0 0 Z " fill="#262526" transform="translate(370,354)"/>
<path d="M0 0 C5.25263484 4.66900875 8.72574007 9.20389435 9.24609375 16.40625 C9.24958102 19.61454027 9.1757799 22.79689952 9 26 C8.67 26 8.34 26 8 26 C8 22.7 8 19.4 8 16 C7.34 16 6.68 16 6 16 C5.85304688 15.11248047 5.85304688 15.11248047 5.703125 14.20703125 C4.73033568 9.06634287 3.5992157 5.95913727 0 2 C0 1.34 0 0.68 0 0 Z " fill="#1D282F" transform="translate(527,644)"/>
<path d="M0 0 C0.33 0.66 0.66 1.32 1 2 C-0.91349805 5.93801817 -3.3845769 8.48826141 -6.6875 11.3125 C-7.49574219 12.00988281 -8.30398438 12.70726562 -9.13671875 13.42578125 C-9.75160156 13.94527344 -10.36648438 14.46476563 -11 15 C-11.66 14.67 -12.32 14.34 -13 14 C-12.39671875 13.40832031 -11.7934375 12.81664062 -11.171875 12.20703125 C-5.26989543 6.38766162 -5.26989543 6.38766162 0 0 Z " fill="#F1F0ED" transform="translate(605,777)"/>
<path d="M0 0 C0.33 0 0.66 0 1 0 C0.67 5.28 0.34 10.56 0 16 C-0.33 15.01 -0.66 14.02 -1 13 C-1.99 13 -2.98 13 -4 13 C-3.52140759 11.39566191 -3.04210442 9.79153584 -2.5625 8.1875 C-2.29566406 7.29417969 -2.02882813 6.40085937 -1.75390625 5.48046875 C-1.19612127 3.64526945 -0.60655425 1.81966274 0 0 Z " fill="#E8E7E3" transform="translate(500,919)"/>
<path d="M0 0 C2.4609375 0.20703125 2.4609375 0.20703125 5.375 0.8125 C6.33148438 1.00457031 7.28796875 1.19664062 8.2734375 1.39453125 C10.52660034 1.89487543 12.765488 2.42283932 15 3 C14.67 3.99 14.34 4.98 14 6 C8.72 4.68 3.44 3.36 -2 2 C-1.34 1.34 -0.68 0.68 0 0 Z " fill="#F5F2EE" transform="translate(386,803)"/>
<path d="M0 0 C2.88392011 2.88392011 3.15369981 5.39843851 3.1875 9.3125 C3.15564515 13.21153357 2.49196819 16.36332754 1 20 C0.34 18.68 -0.32 17.36 -1 16 C-0.34 16 0.32 16 1 16 C0.67 10.72 0.34 5.44 0 0 Z " fill="#212121" transform="translate(635,688)"/>
<path d="M0 0 C0 0.33 0 0.66 0 1 C-0.9075 1.144375 -1.815 1.28875 -2.75 1.4375 C-5.77454149 1.88041841 -5.77454149 1.88041841 -7.71875 2.5625 C-11.08475553 3.20803531 -14.36053647 2.8412177 -17.75 2.5625 C-18.44738281 2.51029297 -19.14476562 2.45808594 -19.86328125 2.40429688 C-21.57596203 2.27525928 -23.28805066 2.13840386 -25 2 C-25 1.67 -25 1.34 -25 1 C-16.64251778 0.15672251 -8.39802254 -0.12190678 0 0 Z " fill="#3E3C3E" transform="translate(589,560)"/>
<path d="M0 0 C1.89213369 2.38573379 3.02391783 4.07175348 4 7 C2.35 7.33 0.7 7.66 -1 8 C-5 3.25 -5 3.25 -5 1 C-2.525 1.495 -2.525 1.495 0 2 C0 1.34 0 0.68 0 0 Z " fill="#EEEBE7" transform="translate(615,143)"/>
<path d="M0 0 C0 0.66 0 1.32 0 2 C-1.10408203 2.19916016 -1.10408203 2.19916016 -2.23046875 2.40234375 C-3.20628906 2.57894531 -4.18210937 2.75554688 -5.1875 2.9375 C-6.15042969 3.11152344 -7.11335937 3.28554688 -8.10546875 3.46484375 C-10.74239972 3.9523735 -13.3719905 4.46671105 -16 5 C-16 4.01 -16 3.02 -16 2 C-14.08404518 1.66259915 -12.16720278 1.33023588 -10.25 1 C-9.18265625 0.814375 -8.1153125 0.62875 -7.015625 0.4375 C-4 0 -4 0 0 0 Z " fill="#E7E5E2" transform="translate(656,553)"/>
<path d="M0 0 C1.7936743 1.1217963 3.5848773 2.24754483 5.375 3.375 C6.37273437 4.00148438 7.37046875 4.62796875 8.3984375 5.2734375 C11 7 11 7 13 9 C8.80639551 8.32902328 5.59665648 6.1441606 2 4 C1.67 6.64 1.34 9.28 1 12 C0.67 12 0.34 12 0 12 C0 8.04 0 4.08 0 0 Z " fill="#F4C79E" transform="translate(462,399)"/>
<path d="M0 0 C0.99 0.33 1.98 0.66 3 1 C3 2.65 3 4.3 3 6 C2.01 6 1.02 6 0 6 C0 4.02 0 2.04 0 0 Z M-4 2 C-3.34 2 -2.68 2 -2 2 C-0.8125 4.25 -0.8125 4.25 0 7 C-1.375 9.3125 -1.375 9.3125 -3 11 C-3.33 8.03 -3.66 5.06 -4 2 Z " fill="#EDE9E5" transform="translate(654,332)"/>
<path d="M0 0 C0.89589844 -0.01417969 1.79179688 -0.02835937 2.71484375 -0.04296875 C5.0625 0.1875 5.0625 0.1875 7.0625 2.1875 C5.48289731 3.76710269 3.86713184 3.35736544 1.6875 3.375 C0.89601563 3.38917969 0.10453125 3.40335937 -0.7109375 3.41796875 C-2.9375 3.1875 -2.9375 3.1875 -5.9375 1.1875 C-4.27188601 -0.47811399 -2.27787295 0.01634055 0 0 Z " fill="#DAAA89" transform="translate(560.9375,288.8125)"/>
<path d="M0 0 C0 0.33 0 0.66 0 1 C-7.92 2.485 -7.92 2.485 -16 4 C-16 3.34 -16 2.68 -16 2 C-10.23826317 -1.06475363 -6.37259801 -1.19937786 0 0 Z " fill="#ECEAE6" transform="translate(703,875)"/>
<path d="M0 0 C-1.5830577 4.2742558 -4.50568404 6.26531794 -8 9 C-8.33 8.01 -8.66 7.02 -9 6 C-8.07213211 4.99105628 -7.13231567 3.99309093 -6.1875 3 C-5.66542969 2.443125 -5.14335937 1.88625 -4.60546875 1.3125 C-3 0 -3 0 0 0 Z " fill="#2A292B" transform="translate(497,613)"/>
<path d="M0 0 C1.67542976 0.28604898 3.34385343 0.61781233 5 1 C3.68 3.31 2.36 5.62 1 8 C0.34 8 -0.32 8 -1 8 C-1.04241723 5.66705225 -1.04092937 3.33297433 -1 1 C-0.67 0.67 -0.34 0.34 0 0 Z " fill="#EAE8E4" transform="translate(347,617)"/>
<path d="M0 0 C0.33 0 0.66 0 1 0 C1.33 4.29 1.66 8.58 2 13 C1.34 13 0.68 13 0 13 C-0.33 13.66 -0.66 14.32 -1 15 C-1.18451025 4.44191344 -1.18451025 4.44191344 0 0 Z " fill="#EBEDE4" transform="translate(528,915)"/>
<path d="M0 0 C0.99 0 1.98 0 3 0 C4.78409802 3.06246747 5.22880021 5.22079273 5.125 8.75 C5.10695313 9.54921875 5.08890625 10.3484375 5.0703125 11.171875 C5.03550781 12.07679688 5.03550781 12.07679688 5 13 C4.67 13 4.34 13 4 13 C3.67 11.02 3.34 9.04 3 7 C2.01 7 1.02 7 0 7 C0 4.69 0 2.38 0 0 Z " fill="#637965" transform="translate(511,914)"/>
<path d="M0 0 C2.00720923 0.28674418 4.0085944 0.61866701 6 1 C5 4 5 4 3 6 C1.68 6 0.36 6 -1 6 C-1.042721 4.33388095 -1.04063832 2.66617115 -1 1 C-0.67 0.67 -0.34 0.34 0 0 Z " fill="#E3A687" transform="translate(521,879)"/>
<path d="M0 0 C1.67110042 2.96178773 2.32682752 5.37071192 2.625 8.75 C2.69976563 9.54921875 2.77453125 10.3484375 2.8515625 11.171875 C2.90054688 11.77515625 2.94953125 12.3784375 3 13 C2.34 13 1.68 13 1 13 C-0.9078584 9.8250906 -1.1609041 7.89414789 -0.625 4.25 C-0.51414062 3.45078125 -0.40328125 2.6515625 -0.2890625 1.828125 C-0.19367187 1.22484375 -0.09828125 0.6215625 0 0 Z " fill="#EAE9E7" transform="translate(672,747)"/>
<path d="M0 0 C0.99 0.33 1.98 0.66 3 1 C3.08153933 2.58246707 3.13943557 4.16616273 3.1875 5.75 C3.23970703 7.07257813 3.23970703 7.07257813 3.29296875 8.421875 C3 11 3 11 0 15 C0 10.05 0 5.1 0 0 Z " fill="#423C3D" transform="translate(646,271)"/>
<path d="M0 0 C1.7492214 -0.08142927 3.49954542 -0.13938541 5.25 -0.1875 C6.22453125 -0.22230469 7.1990625 -0.25710938 8.203125 -0.29296875 C11.37468742 0.03924798 12.67040307 0.88672279 15 3 C13.06318839 3.08107583 11.1254066 3.13922475 9.1875 3.1875 C8.10855469 3.22230469 7.02960938 3.25710938 5.91796875 3.29296875 C3 3 3 3 1.11328125 1.48828125 C0.56220703 0.75158203 0.56220703 0.75158203 0 0 Z " fill="#413F3F" transform="translate(450,561)"/>
<path d="M0 0 C0.66 0 1.32 0 2 0 C2 3.63 2 7.26 2 11 C1.01 10.67 0.02 10.34 -1 10 C-1.6875 7.9375 -1.6875 7.9375 -2 6 C-1.34 5.67 -0.68 5.34 0 5 C0 3.35 0 1.7 0 0 Z " fill="#667E69" transform="translate(511,937)"/>
<path d="M0 0 C4.29 0.33 8.58 0.66 13 1 C11 3 11 3 8.6171875 3.1953125 C7.71226562 3.17210937 6.80734375 3.14890625 5.875 3.125 C4.50988281 3.09792969 4.50988281 3.09792969 3.1171875 3.0703125 C2.41851562 3.04710937 1.71984375 3.02390625 1 3 C0.67 2.01 0.34 1.02 0 0 Z " fill="#F2EFEB" transform="translate(393,898)"/>
<path d="M0 0 C1.5 1.375 1.5 1.375 3 3 C3 3.66 3 4.32 3 5 C3.99 5.33 4.98 5.66 6 6 C6 7.98 6 9.96 6 12 C5.34 12 4.68 12 4 12 C3.32645501 10.56570999 2.66140299 9.12742943 2 7.6875 C1.62875 6.88699219 1.2575 6.08648438 0.875 5.26171875 C0 3 0 3 0 0 Z " fill="#EDEBE9" transform="translate(616,833)"/>
<path d="M0 0 C1.65 0 3.3 0 5 0 C4.01 0.66 3.02 1.32 2 2 C2.33 3.32 2.66 4.64 3 6 C-3.15234375 5.4140625 -3.15234375 5.4140625 -5 5 C-5.33 4.34 -5.66 3.68 -6 3 C-3.03 3.495 -3.03 3.495 0 4 C0 2.68 0 1.36 0 0 Z " fill="#242A30" transform="translate(444,702)"/>
<path d="M0 0 C1.5 1.375 1.5 1.375 3 3 C3 3.66 3 4.32 3 5 C-2.28 4.34 -7.56 3.68 -13 3 C-13 2.67 -13 2.34 -13 2 C-11.39679026 1.80448662 -9.79237014 1.61888017 -8.1875 1.4375 C-7.29417969 1.33308594 -6.40085937 1.22867188 -5.48046875 1.12109375 C-3 1 -3 1 0 2 C0 1.34 0 0.68 0 0 Z " fill="#DDDAD7" transform="translate(467,648)"/>
<path d="M0 0 C0.99 0.33 1.98 0.66 3 1 C3 2.98 3 4.96 3 7 C3.66 7 4.32 7 5 7 C4.67 8.98 4.34 10.96 4 13 C2.42445965 10.11371599 1.53723627 7.46657616 0.875 4.25 C0.70742188 3.45078125 0.53984375 2.6515625 0.3671875 1.828125 C0.24601563 1.22484375 0.12484375 0.6215625 0 0 Z " fill="#F0EDEA" transform="translate(751,544)"/>
<path d="M0 0 C1.13732426 3.40401948 0.83989957 5.77456664 0.0625 9.25 C-0.13214844 10.14203125 -0.32679688 11.0340625 -0.52734375 11.953125 C-0.68332031 12.62859375 -0.83929688 13.3040625 -1 14 C-1.99 14.33 -2.98 14.66 -4 15 C-2.9318153 9.88634986 -1.76892524 4.92772031 0 0 Z " fill="#ECEBE9" transform="translate(306,433)"/>
<path d="M0 0 C3.96 0 7.92 0 12 0 C11.01 1.485 11.01 1.485 10 3 C8.0546875 3.29296875 8.0546875 3.29296875 5.875 3.1875 C4.59625 3.125625 3.3175 3.06375 2 3 C2 2.34 2 1.68 2 1 C1.34 0.67 0.68 0.34 0 0 Z " fill="#454445" transform="translate(466,898)"/>
<path d="M0 0 C1.65 0 3.3 0 5 0 C5.66 1.65 6.32 3.3 7 5 C5.35 5 3.7 5 2 5 C2 3.68 2 2.36 2 1 C1.34 0.67 0.68 0.34 0 0 Z " fill="#ECEAE7" transform="translate(487,797)"/>
<path d="M0 0 C2.88575819 0.39803561 3.82189513 0.79009069 5.75 3.0625 C6.36875 4.0215625 6.36875 4.0215625 7 5 C4.03 4.67 1.06 4.34 -2 4 C-1.34 2.68 -0.68 1.36 0 0 Z " fill="#5F765E" transform="translate(476,769)"/>
<path d="M0 0 C0.66 0.33 1.32 0.66 2 1 C2 3.97 2 6.94 2 10 C1.01 10.495 1.01 10.495 0 11 C-0.19406478 9.35492782 -0.38007935 7.70890406 -0.5625 6.0625 C-0.66691406 5.14597656 -0.77132812 4.22945312 -0.87890625 3.28515625 C-0.91886719 2.53105469 -0.95882812 1.77695312 -1 1 C-0.67 0.67 -0.34 0.34 0 0 Z " fill="#F2F0EC" transform="translate(683,738)"/>
<path d="M0 0 C3.63 0 7.26 0 11 0 C10.67 0.99 10.34 1.98 10 3 C7.03 3 4.06 3 1 3 C0.67 2.01 0.34 1.02 0 0 Z " fill="#DFA686" transform="translate(562,550)"/>
<path d="M0 0 C1.4540625 0.0309375 1.4540625 0.0309375 2.9375 0.0625 C1.9475 0.7225 0.9575 1.3825 -0.0625 2.0625 C0.5975 4.3725 1.2575 6.6825 1.9375 9.0625 C-2.9375 4.4375 -2.9375 4.4375 -4.0625 1.0625 C-3.0625 0.0625 -3.0625 0.0625 0 0 Z " fill="#678567" transform="translate(436.0625,758.9375)"/>
<path d="M0 0 C1.53166168 4.08443115 0.63081652 7.79455657 0 12 C-2.44897847 8.32653229 -2.31537716 6.33643601 -2 2 C-1.34 1.34 -0.68 0.68 0 0 Z " fill="#F1EEEB" transform="translate(343,722)"/>
<path d="M0 0 C2.64 0.66 5.28 1.32 8 2 C8 2.33 8 2.66 8 3 C6.02 3 4.04 3 2 3 C1.67 5.64 1.34 8.28 1 11 C0.67 11 0.34 11 0 11 C0 7.37 0 3.74 0 0 Z " fill="#E0DEDA" transform="translate(497,688)"/>
<path d="M0 0 C0.66 0.99 1.32 1.98 2 3 C-0.3125 5.0625 -0.3125 5.0625 -3 7 C-3.99 6.67 -4.98 6.34 -6 6 C-4.02 4.02 -2.04 2.04 0 0 Z " fill="#F0EEEA" transform="translate(409,619)"/>
<path d="M0 0 C0 1.98 0 3.96 0 6 C-1.65 6 -3.3 6 -5 6 C-4.67 4.35 -4.34 2.7 -4 1 C-1 0 -1 0 0 0 Z " fill="#FDFAF7" transform="translate(654,316)"/>
<path d="M0 0 C0.33 0 0.66 0 1 0 C1.33 4.29 1.66 8.58 2 13 C1.34 13 0.68 13 0 13 C-0.83796731 8.34462607 -1.0161692 4.62921525 0 0 Z " fill="#4E6252" transform="translate(529,906)"/>
<path d="M0 0 C0.66 0.33 1.32 0.66 2 1 C0.02 5.455 0.02 5.455 -2 10 C-4 7 -4 7 -4 5 C-3.02149805 3.97895449 -2.02019573 2.9793879 -1 2 C-0.67 1.34 -0.34 0.68 0 0 Z " fill="#EDECEA" transform="translate(538,749)"/>
<path d="M0 0 C0 0.66 0 1.32 0 2 C-4.625 4.125 -4.625 4.125 -8 3 C-8.33 2.34 -8.66 1.68 -9 1 C-5.846632 0.29925156 -3.27275026 0 0 0 Z " fill="#E6E3DE" transform="translate(677,549)"/>
<path d="M0 0 C0.66 0.33 1.32 0.66 2 1 C2 2.65 2 4.3 2 6 C0.68 6.33 -0.64 6.66 -2 7 C-2.125 4.625 -2.125 4.625 -2 2 C-1.34 1.34 -0.68 0.68 0 0 Z " fill="#FBF7F0" transform="translate(655,337)"/>
<path d="M0 0 C0.33 0.99 0.66 1.98 1 3 C-1.97 5.475 -1.97 5.475 -5 8 C-5 5 -5 5 -2.5 2.3125 C-1.675 1.549375 -0.85 0.78625 0 0 Z " fill="#F0EEE9" transform="translate(762,855)"/>
<path d="M0 0 C2.13093906 1.06546953 3.36587557 2.29159719 5 4 C3.68 4 2.36 4 1 4 C1 5.98 1 7.96 1 10 C0.67 10 0.34 10 0 10 C-0.19412181 8.52168779 -0.38012131 7.04230684 -0.5625 5.5625 C-0.66691406 4.73878906 -0.77132812 3.91507813 -0.87890625 3.06640625 C-0.91886719 2.38449219 -0.95882812 1.70257812 -1 1 C-0.67 0.67 -0.34 0.34 0 0 Z " fill="#E3A686" transform="translate(570,823)"/>
<path d="M0 0 C-0.99 1.98 -1.98 3.96 -3 6 C-3.66 6 -4.32 6 -5 6 C-4.67 4.68 -4.34 3.36 -4 2 C-4.99 1.34 -5.98 0.68 -7 0 C-4.3333581 -1.33332095 -2.83319697 -0.67102033 0 0 Z " fill="#F0EFEC" transform="translate(413,823)"/>
<path d="M0 0 C0.99 0.33 1.98 0.66 3 1 C3.125 4.375 3.125 4.375 3 8 C2.34 8.66 1.68 9.32 1 10 C-0.60725635 6.78548731 -0.05748185 3.56387464 0 0 Z " fill="#414041" transform="translate(775,774)"/>
<path d="M0 0 C0.99 0 1.98 0 3 0 C3 0.66 3 1.32 3 2 C3.66 2.33 4.32 2.66 5 3 C4.34 3 3.68 3 3 3 C3 4.65 3 6.3 3 8 C2.34 7.67 1.68 7.34 1 7 C0.59270772 4.67843403 0.25561323 2.3431213 0 0 Z " fill="#EB957D" transform="translate(411,698)"/>
<path d="M0 0 C0 0.99 0 1.98 0 3 C-6.0546875 3.1953125 -6.0546875 3.1953125 -8 3 C-8.66 2.34 -9.32 1.68 -10 1 C-6.78548731 -0.60725635 -3.56387464 -0.05748185 0 0 Z " fill="#433E3F" transform="translate(482,499)"/>
<path d="M0 0 C0.66 0.66 1.32 1.32 2 2 C0.02 2.99 0.02 2.99 -2 4 C-1.34 2.68 -0.68 1.36 0 0 Z M-4 5 C-3.34 5.66 -2.68 6.32 -2 7 C-2.99 7.33 -3.98 7.66 -5 8 C-4.67 7.01 -4.34 6.02 -4 5 Z " fill="#F2F0EB" transform="translate(409,127)"/>
<path d="M0 0 C0.33 0 0.66 0 1 0 C1.33 3.63 1.66 7.26 2 11 C1.01 11.33 0.02 11.66 -1 12 C-0.67 8.04 -0.34 4.08 0 0 Z " fill="#749277" transform="translate(510,931)"/>
<path d="M0 0 C0.90105469 0.01804687 1.80210937 0.03609375 2.73046875 0.0546875 C3.41753906 0.07789063 4.10460937 0.10109375 4.8125 0.125 C4.8125 0.455 4.8125 0.785 4.8125 1.125 C3.74 1.269375 2.6675 1.41375 1.5625 1.5625 C-1.97222598 2.01933176 -1.97222598 2.01933176 -4.5 2.75 C-6.1875 3.125 -6.1875 3.125 -8.1875 2.125 C-4.87379 -0.08414 -3.8428979 -0.09981553 0 0 Z " fill="#131214" transform="translate(479.1875,621.875)"/>
<path d="M0 0 C2.97 0 5.94 0 9 0 C9.33 0.99 9.66 1.98 10 3 C6.6875 3.1875 6.6875 3.1875 3 3 C2.01 2.01 1.02 1.02 0 0 Z " fill="#E0A888" transform="translate(448,550)"/>
<path d="M0 0 C2.32590854 3.63423209 2.16265833 6.77088331 2 11 C1.67 9.68 1.34 8.36 1 7 C0.34 7 -0.32 7 -1 7 C-0.67 4.69 -0.34 2.38 0 0 Z " fill="#1C1C1F" transform="translate(673,377)"/>
<path d="M0 0 C0.33 1.32 0.66 2.64 1 4 C-0.98 5.32 -2.96 6.64 -5 8 C-3.8141763 4.62496331 -2.72426311 2.35277269 0 0 Z " fill="#232224" transform="translate(397,124)"/>
<path d="M0 0 C0.66 0.33 1.32 0.66 2 1 C1.2575 1.680625 1.2575 1.680625 0.5 2.375 C-1.22609337 3.87635519 -1.22609337 3.87635519 -1 6 C-2.65 5.67 -4.3 5.34 -6 5 C-2.25 1.125 -2.25 1.125 0 0 Z " fill="#698567" transform="translate(565,785)"/>
<path d="M0 0 C1.9375 0.6875 1.9375 0.6875 4 2 C4.75 4.625 4.75 4.625 5 7 C4.01 7.33 3.02 7.66 2 8 C1.34 5.36 0.68 2.72 0 0 Z " fill="#ECE9E6" transform="translate(615,747)"/>
<path d="M0 0 C1.98 0.66 3.96 1.32 6 2 C4.68 2.33 3.36 2.66 2 3 C2 4.65 2 6.3 2 8 C0.23537317 4.91190305 0 3.76687864 0 0 Z " fill="#F1F1EF" transform="translate(348,637)"/>
<path d="M0 0 C2.64 0 5.28 0 8 0 C7.67 0.99 7.34 1.98 7 3 C4.69 3 2.38 3 0 3 C0 2.01 0 1.02 0 0 Z " fill="#474545" transform="translate(591,559)"/>
<path d="M0 0 C0.33 1.32 0.66 2.64 1 4 C0.01 4.33 -0.98 4.66 -2 5 C-3.21869929 7.50447516 -3.21869929 7.50447516 -4 10 C-4.33 9.34 -4.66 8.68 -5 8 C-4.00390625 6.0546875 -4.00390625 6.0546875 -2.5625 3.875 C-2.08941406 3.15054687 -1.61632812 2.42609375 -1.12890625 1.6796875 C-0.75636719 1.12539063 -0.38382812 0.57109375 0 0 Z " fill="#1A191B" transform="translate(353,378)"/>
<path d="M0 0 C0.33 0 0.66 0 1 0 C1.33 3.63 1.66 7.26 2 11 C1.01 11.495 1.01 11.495 0 12 C-2.125 11.0625 -2.125 11.0625 -4 10 C-3.01 9.67 -2.02 9.34 -1 9 C-0.67 6.03 -0.34 3.06 0 0 Z " fill="#3F3B3C" transform="translate(416,259)"/>
<path d="M0 0 C0.66 0.33 1.32 0.66 2 1 C2 1.99 2 2.98 2 4 C1.34 4 0.68 4 0 4 C0 4.66 0 5.32 0 6 C1.32 6.33 2.64 6.66 4 7 C2.35 7 0.7 7 -1 7 C-1.625 4.625 -1.625 4.625 -2 2 C-1.34 1.34 -0.68 0.68 0 0 Z " fill="#3E3C3D" transform="translate(447,253)"/>
<path d="M0 0 C1.85776765 3.13498292 2.20140476 5.37471432 2 9 C1.01 8.67 0.02 8.34 -1 8 C-1.125 2.25 -1.125 2.25 0 0 Z " fill="#718B73" transform="translate(493,927)"/>
<path d="M0 0 C1.22589844 0.15275391 1.22589844 0.15275391 2.4765625 0.30859375 C3.41628906 0.43427734 3.41628906 0.43427734 4.375 0.5625 C4.375 0.8925 4.375 1.2225 4.375 1.5625 C0.745 1.8925 -2.885 2.2225 -6.625 2.5625 C-6.625 1.9025 -6.625 1.2425 -6.625 0.5625 C-4.10446405 -0.69776798 -2.7707902 -0.35624445 0 0 Z " fill="#E5E3E0" transform="translate(625.625,888.4375)"/>
<path d="M0 0 C-3.18762365 2.12508244 -5.26512223 2.5020163 -9 3 C-9 2.34 -9 1.68 -9 1 C-5.57367167 -0.61798838 -3.61944899 -1.34053666 0 0 Z " fill="#F2F0ED" transform="translate(449,813)"/>
<path d="M0 0 C2.31 0 4.62 0 7 0 C7.33 0.99 7.66 1.98 8 3 C5.125 3.1875 5.125 3.1875 2 3 C1.34 2.01 0.68 1.02 0 0 Z " fill="#443D3D" transform="translate(521,809)"/>
<path d="M0 0 C2.9628331 0.39504441 5.38326241 1.59817629 8 3 C4.06329512 4.31223496 1.87511856 3.24296256 -2 2 C-1.34 1.34 -0.68 0.68 0 0 Z " fill="#EBEAE6" transform="translate(386,803)"/>
<path d="M0 0 C0.33 0 0.66 0 1 0 C1 2.64 1 5.28 1 8 C0.01 8 -0.98 8 -2 8 C-2.125 5.125 -2.125 5.125 -2 2 C-1.34 1.34 -0.68 0.68 0 0 Z " fill="#464344" transform="translate(261,644)"/>
<path d="M0 0 C0.33 0 0.66 0 1 0 C1.1875 3.375 1.1875 3.375 1 7 C0.01 7.66 -0.98 8.32 -2 9 C-2.125 5.625 -2.125 5.625 -2 2 C-1.34 1.34 -0.68 0.68 0 0 Z " fill="#F4F1EA" transform="translate(260,628)"/>
<path d="M0 0 C7.75 0.75 7.75 0.75 10 3 C2.25 3.125 2.25 3.125 0 2 C0 1.34 0 0.68 0 0 Z " fill="#1E232C" transform="translate(295,526)"/>
</svg>
